<?xml version="1.0" standalone="no"?>
<!DOCTYPE svg PUBLIC "-//W3C//DTD SVG 20010904//EN"
 "http://www.w3.org/TR/2001/REC-SVG-20010904/DTD/svg10.dtd">
<svg version="1.0" xmlns="http://www.w3.org/2000/svg"
 width="500.000000pt" height="675.000000pt" viewBox="0 0 500.000000 675.000000"
 preserveAspectRatio="xMidYMid meet">

<g transform="translate(0.000000,675.000000) scale(0.100000,-0.100000)"
fill="#000000" stroke="none">
<path d="M2255 6482 l-40 -17 35 -5 35 -6 -25 -14 c-14 -7 -41 -17 -60 -21
-85 -19 -112 -28 -125 -45 -10 -14 -30 -19 -85 -22 -50 -3 -71 -1 -66 6 10 16
-99 8 -121 -8 -10 -8 -20 -16 -22 -17 -2 -2 7 -12 21 -23 14 -10 31 -32 37
-48 8 -20 19 -29 34 -29 57 1 78 -5 105 -28 23 -19 28 -31 25 -52 -3 -20 -2
-24 5 -14 8 11 12 10 21 -8 7 -12 21 -21 36 -21 13 0 27 -5 30 -10 4 -6 11 -8
16 -5 5 4 9 0 10 -7 2 -50 12 -82 38 -120 16 -24 28 -44 26 -46 -8 -9 -45 11
-45 24 0 8 -4 14 -10 14 -5 0 -7 6 -4 14 3 7 -3 17 -13 21 -19 7 -200 8 -212
1 -16 -10 -186 -7 -286 5 -60 7 -125 12 -144 12 -23 -1 -30 2 -24 8 16 16 81
28 147 29 54 0 61 3 97 39 45 45 50 81 19 149 -18 39 -21 42 -57 40 -37 -1
-37 -1 -5 -5 52 -7 37 -18 -48 -37 -58 -14 -96 -29 -135 -57 -57 -40 -68 -41
-38 -5 16 19 16 19 -7 -1 -14 -12 -40 -47 -59 -78 -30 -50 -34 -65 -39 -148
-3 -67 0 -102 10 -127 l15 -35 7 48 c4 26 14 63 22 82 l14 35 155 0 c97 0 155
4 155 10 0 19 22 10 51 -21 20 -22 29 -26 29 -15 0 9 5 16 10 16 6 0 10 -6 10
-13 0 -16 41 -17 53 -2 4 6 12 3 21 -7 7 -10 17 -18 21 -18 24 0 78 -37 93
-64 19 -36 24 -57 22 -109 0 -25 3 -36 10 -32 6 4 10 3 9 -2 -1 -4 1 -21 6
-37 4 -16 4 -31 -2 -35 -16 -10 -23 -51 -8 -51 16 0 25 22 26 68 1 37 1 36 12
-11 13 -51 27 -54 27 -5 0 15 5 28 10 28 6 0 10 -16 10 -35 0 -19 5 -35 11
-35 8 0 10 12 6 36 -6 35 -6 36 16 21 17 -12 22 -24 20 -56 -1 -23 3 -41 8
-41 5 0 13 -10 18 -22 7 -20 10 -16 16 26 4 28 11 43 15 36 6 -9 11 -7 19 6 8
15 11 9 11 -36 1 -51 2 -53 15 -36 17 23 20 56 5 56 -5 0 -10 13 -10 30 0 21
-4 28 -14 24 -9 -3 -16 4 -20 21 -4 14 -11 23 -15 20 -5 -3 -7 4 -4 15 3 11 9
20 13 20 10 0 4 96 -9 139 -17 55 -6 47 23 -18 14 -32 26 -75 26 -96 0 -21 5
-55 12 -77 13 -45 36 -54 106 -43 57 9 86 9 109 1 15 -6 15 -8 3 -17 -11 -8
-12 -12 -2 -16 6 -2 12 -9 12 -14 0 -14 -27 -11 -34 4 -5 10 -7 10 -12 0 -10
-22 -42 -15 -47 10 -2 12 -5 -15 -6 -60 -1 -53 3 -83 10 -83 5 0 9 -8 8 -17
-4 -48 1 -72 16 -67 10 4 15 0 15 -12 0 -16 2 -17 10 -4 6 8 9 41 8 73 -1 53
5 77 17 65 3 -3 8 -50 11 -106 5 -93 4 -103 -15 -123 -20 -22 -21 -22 -40 -5
-11 10 -23 38 -27 62 -3 24 -10 47 -15 50 -5 3 -9 17 -9 32 0 21 -2 24 -10 12
-9 -14 -26 -117 -22 -132 1 -5 -2 -8 -6 -8 -4 0 -6 -15 -4 -34 2 -18 -1 -37
-7 -40 -9 -6 -9 54 0 124 4 29 -1 51 -10 45 -10 -6 -5 16 24 99 11 33 15 63
10 92 -9 64 -24 63 -27 -3 -2 -37 -7 -57 -14 -56 -7 1 -17 -11 -24 -27 -7 -17
-16 -30 -20 -30 -4 0 -10 -9 -13 -20 -3 -11 -12 -20 -21 -20 -12 0 -16 10 -17
38 -2 34 -2 35 -7 7 l-5 -30 -7 25 c-8 24 -8 23 -9 -7 -1 -17 -9 -46 -18 -65
-28 -56 -30 -62 -22 -88 4 -15 7 -18 8 -8 2 26 22 33 37 13 8 -11 19 -15 30
-11 9 4 14 9 10 13 -7 7 22 43 35 43 4 0 5 -19 2 -42 -4 -24 -6 -56 -6 -71 0
-19 -3 -25 -10 -18 -6 6 -10 24 -10 41 0 16 -2 30 -3 30 -2 0 -11 -14 -20 -32
-21 -40 -24 -89 -7 -106 16 -16 17 -36 2 -26 -7 4 -10 -3 -9 -17 1 -13 2 -44
1 -69 -1 -46 -16 -46 -24 0 -3 17 -5 13 -6 -15 -1 -22 -4 -51 -8 -65 -6 -22
-5 -23 8 -10 8 8 22 30 31 49 l16 34 4 -47 c3 -49 -6 -84 -14 -50 -3 10 -9 -6
-13 -36 -7 -46 -10 -51 -16 -30 -5 18 -8 8 -9 -35 -1 -33 -2 -63 -2 -66 1 -4
-7 -24 -18 -45 -11 -22 -19 -33 -20 -26 0 6 -5 12 -11 12 -6 0 -17 7 -26 15
-17 18 -12 62 12 109 8 15 13 32 10 36 -3 4 2 21 10 36 8 16 15 36 14 44 0 10
-2 11 -6 2 -2 -6 -10 -9 -16 -5 -7 3 -9 3 -5 -1 4 -5 -9 -36 -28 -70 -19 -35
-34 -75 -34 -90 0 -23 -9 -59 -37 -146 -4 -12 -7 -12 -19 4 -14 19 -14 19 -15
-5 -1 -13 0 -40 0 -59 1 -26 -1 -31 -8 -21 -10 15 -9 17 -26 -64 -6 -28 -25
-26 -20 3 1 9 0 11 -2 5 -3 -7 -9 -13 -14 -13 -5 0 -9 -12 -10 -27 l-1 -28 -9
30 c-5 17 -7 57 -3 90 5 55 5 58 -9 40 -8 -11 -13 -24 -10 -29 4 -5 1 -6 -5
-2 -7 4 -12 14 -12 22 0 8 -4 14 -10 14 -5 0 -10 -6 -10 -12 0 -9 -4 -8 -10 2
-8 12 -10 12 -11 -5 0 -12 -3 -15 -6 -7 -5 14 -43 -48 -43 -71 0 -7 -9 -18
-20 -25 -19 -11 -20 -10 -20 24 0 40 -23 44 -28 4 -3 -18 -6 -20 -13 -9 -7 11
-9 10 -9 -4 0 -10 -7 -25 -15 -33 -13 -14 -15 -13 -15 6 0 12 -4 18 -10 15 -5
-3 -10 0 -10 8 0 22 21 77 30 77 4 0 12 19 18 43 9 33 8 39 -1 26 -7 -8 -20
-18 -31 -22 -14 -5 -17 -14 -13 -34 3 -16 -3 -50 -14 -78 -10 -27 -19 -58 -19
-67 0 -10 -6 -18 -14 -18 -19 0 -26 -35 -15 -73 11 -39 11 -59 -1 -32 -6 15
-9 8 -9 -27 -1 -47 -7 -54 -42 -50 -4 1 -4 -29 -2 -66 l5 -67 -22 40 c-30 56
-31 159 -2 243 23 64 29 166 12 177 -6 4 -10 -14 -11 -47 0 -38 -3 -47 -9 -33
-9 24 -12 19 -31 -70 -7 -33 -15 -62 -19 -65 -16 -14 -30 -66 -29 -108 1 -26
3 -39 6 -29 8 31 23 18 23 -21 0 -21 5 -43 10 -48 14 -14 22 -84 10 -84 -6 0
-10 12 -10 26 0 31 -23 28 -28 -3 -6 -38 38 -196 60 -220 14 -15 19 -30 15
-50 -3 -16 2 -42 13 -63 10 -19 23 -55 30 -78 8 -32 15 -42 26 -38 10 4 16 -4
21 -25 4 -19 9 -26 13 -18 11 17 22 -23 15 -53 -6 -25 39 -188 55 -198 6 -4 8
-15 5 -26 -6 -17 -6 -18 5 -1 17 26 43 21 68 -13 17 -23 19 -30 8 -30 -8 0
-21 7 -29 15 -8 8 -18 11 -22 7 -5 -4 -5 1 -2 11 8 22 0 22 -12 -1 -8 -15 -1
-31 30 -77 21 -32 39 -62 39 -66 0 -5 8 -9 18 -9 14 0 15 -2 2 -10 -13 -8 -12
-10 3 -10 10 0 15 -5 12 -10 -4 -6 -3 -10 2 -9 24 4 33 -4 33 -29 0 -30 42
-96 54 -85 4 4 4 0 0 -10 -3 -9 -1 -17 4 -17 6 0 14 -10 18 -22 4 -13 9 -25
13 -28 3 -3 17 -27 30 -54 20 -37 26 -44 31 -30 5 12 10 3 19 -32 30 -120 43
-155 71 -183 17 -16 30 -32 30 -36 0 -10 79 -123 91 -131 6 -3 14 -2 18 4 8
13 56 -53 56 -77 0 -9 5 -15 12 -14 6 1 13 -4 16 -11 4 -10 -1 -12 -16 -9 -14
3 -8 -4 15 -18 40 -24 50 -39 39 -58 -6 -9 -20 -5 -56 13 -51 27 -75 32 -75
16 0 -5 10 -10 23 -10 47 0 99 -58 77 -85 -14 -17 -30 -135 -18 -135 4 0 8 -6
8 -13 0 -8 11 -24 25 -37 22 -20 23 -25 10 -32 -25 -14 -17 -27 9 -15 13 7 22
15 20 18 -2 4 15 9 39 11 44 5 97 -14 97 -34 0 -9 3 -9 12 0 9 9 5 16 -15 33
-15 11 -25 25 -22 29 3 5 0 29 -6 54 -8 34 -19 49 -40 60 -27 14 -28 13 -16
-8 7 -11 17 -24 22 -28 6 -4 0 -8 -12 -8 -16 0 -21 -4 -17 -15 4 -8 14 -15 24
-15 10 0 20 -9 23 -19 4 -16 -1 -19 -32 -17 -20 0 -47 -2 -62 -6 -21 -6 -28
-3 -42 21 -24 41 -21 89 9 157 15 33 29 61 31 63 5 7 83 -71 83 -83 0 -6 -5
-5 -12 2 -7 7 -28 11 -47 11 -28 -1 -30 -3 -11 -6 14 -3 32 -11 41 -19 9 -8
22 -14 29 -12 15 3 22 -10 78 -130 34 -73 36 -82 19 -82 -32 0 -55 -19 -66
-53 -12 -37 -3 -79 21 -93 15 -9 82 -6 114 6 22 9 23 6 30 -58 5 -49 9 -60 14
-42 6 24 7 24 17 5 6 -11 14 -38 18 -60 4 -22 10 -34 12 -28 6 17 33 -9 33
-31 0 -8 4 -17 10 -21 5 -3 19 -33 31 -66 12 -33 25 -55 29 -49 4 7 12 -1 20
-19 7 -17 17 -31 22 -31 5 0 7 -4 4 -8 -3 -5 5 -15 19 -22 13 -7 42 -32 65
-56 24 -25 51 -44 63 -44 26 -1 119 -51 121 -65 2 -15 -65 -14 -96 2 -49 24
-80 34 -73 23 3 -6 12 -10 19 -10 20 0 98 -59 91 -70 -3 -5 -2 -11 3 -14 5 -3
7 -20 4 -37 l-5 -32 -13 25 c-7 14 -30 36 -51 48 l-37 21 37 -40 c20 -23 37
-46 37 -51 0 -16 -23 -11 -50 10 -35 28 -45 25 -21 -6 12 -15 21 -35 21 -45 0
-23 4 -23 36 -2 20 13 27 14 34 4 6 -11 8 -11 12 0 4 11 16 10 59 -8 30 -13
89 -28 132 -34 61 -9 77 -15 73 -26 -3 -8 1 -24 9 -36 19 -28 19 -35 -2 -40
-13 -3 -14 -5 -3 -6 21 -2 60 -62 66 -102 3 -19 1 -45 -5 -59 -9 -24 -10 -24
-10 8 -1 35 -27 91 -62 132 l-21 24 -19 -24 c-27 -36 -23 -63 17 -111 33 -40
35 -46 29 -88 -8 -56 -9 -58 -46 -76 -31 -17 -79 -11 -79 9 0 8 -11 11 -32 8
-18 -3 -30 -1 -26 3 4 5 3 14 -3 22 -13 15 -1 17 61 14 36 -2 86 31 75 49 -3
5 4 12 15 15 30 10 8 33 -39 41 -64 10 -71 15 -135 78 -52 52 -72 65 -122 79
-82 23 -94 22 -185 -18 -44 -19 -87 -35 -95 -35 -24 0 -87 -36 -115 -67 -15
-15 -34 -51 -43 -80 -17 -51 -63 -113 -85 -113 -5 0 -20 11 -33 24 -29 30 -75
45 -110 35 -26 -7 -28 -6 -22 19 4 15 15 52 26 82 30 84 31 90 18 90 -7 0 -9
8 -5 20 5 15 2 20 -10 20 -11 0 -15 -5 -12 -14 3 -8 -1 -17 -9 -20 -8 -3 -14
-14 -14 -25 0 -22 -29 -36 -44 -21 -6 6 -6 10 0 10 5 0 10 11 10 25 2 21 -2
23 -25 19 -14 -2 -48 -6 -76 -8 -60 -5 -126 -21 -134 -33 -3 -5 -23 -14 -44
-20 -31 -9 -38 -9 -46 4 -6 11 -17 14 -35 11 -18 -4 -29 -1 -33 8 -3 8 -13 14
-22 14 -14 1 -14 2 2 11 9 6 15 14 12 18 -2 5 2 14 10 21 20 17 9 33 -15 20
-15 -8 -17 -6 -13 10 5 18 0 20 -58 21 l-64 1 45 11 c45 10 45 11 15 18 -22 5
-25 7 -10 9 11 2 27 3 35 2 22 -1 77 30 62 36 -8 2 -19 -1 -25 -7 -6 -6 -18
-11 -26 -11 -14 1 -13 3 1 14 16 12 16 14 -7 26 -19 10 -22 16 -13 22 9 5 6 8
-9 8 -24 0 -31 14 -13 25 6 4 8 10 5 15 -3 5 -1 11 5 15 13 8 13 45 0 45 -5 0
-10 5 -10 10 0 6 6 10 13 10 7 0 18 9 25 20 10 17 10 21 -3 27 -9 3 -26 1 -38
-4 -52 -24 -80 -33 -104 -33 -15 0 -23 -3 -20 -7 4 -3 -1 -12 -11 -19 -20 -16
-36 -18 -27 -4 4 7 -13 8 -51 4 -45 -6 -63 -13 -80 -33 -12 -14 -26 -22 -30
-18 -5 4 -2 13 6 18 11 8 5 9 -22 4 -21 -3 -38 -2 -38 2 0 14 -97 5 -134 -12
-27 -13 -35 -22 -31 -35 3 -10 1 -21 -4 -25 -7 -3 -8 0 -5 9 4 12 0 16 -16 16
-11 0 -18 5 -15 10 3 6 -2 10 -12 11 -36 1 41 24 97 29 8 0 1 7 -17 15 -18 7
-48 12 -68 9 -19 -2 -35 -2 -35 0 0 4 26 13 136 46 22 7 41 18 41 26 0 19 -32
18 -52 -2 -8 -9 -22 -13 -31 -10 -16 6 -99 -13 -155 -37 -42 -17 -90 -12 -82
9 7 19 -26 18 -86 -1 -25 -8 -57 -17 -71 -19 -14 -3 -34 -12 -45 -21 -19 -16
-19 -16 5 -9 24 6 24 6 5 -10 -25 -19 -22 -19 39 -1 52 16 85 6 48 -14 -15 -8
-21 -8 -24 1 -3 7 -11 9 -24 4 -17 -8 -16 -10 10 -21 29 -12 29 -13 8 -24 -29
-16 -72 -14 -78 4 -7 16 -54 21 -54 5 0 -5 -8 -6 -17 -3 -12 5 -15 2 -10 -10
5 -12 -9 -24 -59 -48 -41 -21 -61 -35 -53 -40 8 -4 -5 -12 -32 -19 -24 -6 -84
-26 -133 -45 -67 -26 -93 -32 -103 -23 -9 7 -13 7 -13 -1 0 -6 4 -11 10 -11 5
0 12 -11 16 -25 4 -16 13 -25 26 -25 22 0 50 -24 40 -35 -4 -3 2 -11 12 -17
15 -8 16 -12 5 -19 -12 -7 -11 -9 1 -9 10 -1 4 -10 -15 -25 -25 -21 -28 -27
-15 -35 8 -6 42 -7 75 -4 l60 6 -43 -41 c-23 -22 -42 -45 -42 -50 0 -27 14
-41 44 -41 24 0 28 -3 16 -10 -42 -28 378 50 570 106 37 10 115 17 237 21
l181 6 79 -55 c74 -52 396 -218 422 -218 6 0 22 -6 34 -14 12 -8 50 -24 84
-35 33 -11 77 -30 96 -41 37 -22 147 -173 147 -202 0 -9 6 -18 13 -21 9 -4 9
-7 -1 -18 -6 -7 -12 -23 -12 -36 l0 -23 656 0 656 0 -5 50 c-3 27 -13 60 -21
72 -9 12 -16 32 -16 45 0 12 -6 28 -14 36 -9 8 -11 19 -6 27 5 8 2 26 -7 44
-19 36 -22 210 -4 244 6 11 15 64 20 118 8 95 8 101 -21 175 l-29 77 20 38
c25 45 26 72 7 118 -22 54 -78 89 -147 94 -73 5 -113 -10 -130 -50 -20 -48 5
-60 111 -52 83 6 86 6 113 -21 18 -19 27 -38 27 -61 0 -47 -26 -59 -71 -34
-64 36 -98 50 -119 50 -12 0 -19 4 -15 9 3 6 -15 11 -42 13 -39 2 -50 7 -60
28 -9 17 -13 20 -13 8 0 -9 5 -20 10 -23 13 -8 13 -25 -1 -25 -5 0 -29 15 -51
32 -27 22 -42 29 -45 21 -5 -15 -33 -17 -33 -3 0 6 -7 10 -15 10 -8 0 -15 -4
-15 -10 0 -5 -4 -10 -10 -10 -16 0 -11 48 9 88 25 48 55 65 113 67 26 1 50 4
54 7 3 4 11 5 18 2 6 -2 19 14 29 36 9 23 21 39 26 36 15 -9 46 117 46 186 0
38 2 68 3 68 2 0 12 -10 21 -22 18 -21 61 -33 61 -16 0 4 6 8 14 8 26 0 46 30
46 68 l0 36 30 -32 c17 -18 30 -37 30 -42 0 -4 4 -52 9 -106 6 -55 12 -128 15
-164 18 -203 29 -309 46 -427 11 -72 20 -154 20 -181 0 -83 49 -300 93 -413
14 -35 28 -78 32 -95 6 -31 71 -102 82 -90 4 3 18 -2 32 -11 23 -16 61 -18
359 -21 289 -3 337 -1 358 12 13 9 32 16 44 16 11 0 20 5 20 10 0 16 71 90 85
90 7 0 20 15 29 34 17 37 20 106 7 226 -4 41 -4 80 0 86 4 5 2 50 -6 100 -19
113 -19 114 3 114 23 0 47 25 63 65 7 18 13 106 16 218 3 167 1 197 -17 263
-25 93 -88 254 -107 276 -8 9 -13 21 -10 26 3 4 -4 31 -17 58 -12 27 -26 62
-30 79 -11 44 -76 175 -87 175 -5 0 -9 11 -9 24 0 23 -47 118 -62 124 -4 2
-12 21 -18 41 -5 21 -20 53 -33 72 -13 19 -45 81 -72 139 -27 58 -59 122 -72
142 -46 74 -104 212 -98 235 3 12 1 25 -5 28 -5 3 -10 18 -10 32 0 26 -17 107
-45 213 -8 30 -24 91 -34 135 -51 209 -108 405 -120 415 -3 3 -7 14 -9 25 -17
112 -208 565 -321 763 -28 49 -51 92 -51 95 0 4 -15 30 -34 59 -18 29 -55 96
-81 148 -26 52 -72 129 -103 170 -77 103 -254 273 -324 310 -41 22 -66 45 -91
83 -19 28 -56 70 -81 92 l-46 40 0 67 c0 90 -18 216 -37 255 -8 18 -12 40 -9
50 8 19 22 8 29 -22 3 -11 5 5 6 36 1 61 -23 144 -64 216 -23 43 -24 44 -3 37
14 -4 18 -2 14 5 -4 6 -3 11 2 11 4 0 16 -16 26 -36 9 -20 19 -34 22 -31 11
11 -16 109 -47 170 -47 94 -51 107 -34 107 8 0 19 -15 24 -32 9 -31 9 -30 10
19 1 69 -28 143 -79 204 -41 49 -50 66 -27 53 19 -11 -2 8 -52 46 -60 46 -105
70 -176 91 -78 24 -214 25 -270 1z m190 -63 c16 -6 12 -8 -17 -8 -41 -1 -68 7
-68 20 0 9 50 2 85 -12z m-230 -19 c4 -6 -6 -10 -22 -9 -25 0 -26 1 -8 9 11 5
21 9 22 9 1 1 5 -3 8 -9z m72 -6 c-3 -3 -12 -4 -19 -1 -8 3 -5 6 6 6 11 1 17
-2 13 -5z m193 -35 c56 -29 45 -33 -25 -9 -60 21 -110 27 -65 8 78 -32 91 -39
85 -48 -7 -11 -125 45 -125 60 0 18 88 11 130 -11z m50 -49 c12 -8 9 -9 -12
-8 -15 1 -24 6 -22 10 7 10 16 10 34 -2z m-280 -84 c0 -14 -4 -28 -10 -31 -6
-4 -10 7 -10 24 0 17 5 31 10 31 6 0 10 -11 10 -24z m-130 4 c0 -5 -7 -10 -15
-10 -8 0 -15 5 -15 10 0 6 7 10 15 10 8 0 15 -4 15 -10z m100 -14 c0 -31 -43
-66 -81 -66 -49 0 -79 20 -79 52 0 35 16 37 24 3 6 -21 12 -25 47 -25 34 0 42
4 57 30 21 36 32 38 32 6z m-174 -54 c-6 -6 -26 43 -25 61 0 7 7 -3 15 -22 8
-18 13 -36 10 -39z m274 -2 c8 -5 11 -12 8 -16 -10 -9 -38 3 -38 16 0 12 10
13 30 0z m-348 -212 c9 1 19 -6 22 -14 4 -10 2 -13 -7 -7 -6 4 -24 6 -39 4
-15 -1 -32 0 -38 4 -18 11 1 27 24 20 11 -4 29 -7 38 -7z m567 -275 c-13 -15
-39 -18 -39 -4 0 10 17 18 37 18 9 0 10 -4 2 -14z m76 -73 c3 -5 1 -10 -4 -10
-6 0 -11 5 -11 10 0 6 2 10 4 10 3 0 8 -4 11 -10z m2 -54 c-10 -26 -25 -18
-19 10 3 17 8 22 15 15 5 -5 7 -17 4 -25z m-420 2 c-3 -8 -6 -5 -6 6 -1 11 2
17 5 13 3 -3 4 -12 1 -19z m398 -48 c2 -8 8 -28 14 -44 7 -16 9 -31 6 -34 -3
-3 -5 0 -5 7 0 7 -5 9 -10 6 -17 -10 -36 50 -31 97 4 43 4 43 13 13 5 -16 11
-37 13 -45z m45 -5 c0 -8 -7 -15 -15 -15 -9 0 -12 6 -9 15 4 8 10 15 15 15 5
0 9 -7 9 -15z m67 -97 c-3 -7 -5 -2 -5 12 0 14 2 19 5 13 2 -7 2 -19 0 -25z
m-315 -190 c-6 -6 -7 0 -4 19 5 21 7 23 10 9 2 -10 0 -22 -6 -28z m438 -80 c0
-5 8 -22 18 -36 35 -51 33 -68 -3 -28 -31 35 -50 97 -25 81 6 -3 10 -11 10
-17z m-207 -83 c10 -14 15 -30 12 -35 -11 -18 -32 -11 -39 13 -14 52 -2 62 27
22z m467 -27 c0 -4 -4 -8 -9 -8 -6 0 -12 4 -15 8 -3 5 1 9 9 9 8 0 15 -4 15
-9z m-340 -60 c0 -5 -4 -8 -10 -8 -5 0 -10 10 -10 23 0 18 2 19 10 7 5 -8 10
-18 10 -22z m261 -130 c11 -11 19 -25 19 -29 0 -18 -13 -38 -21 -33 -11 6 -7
-25 6 -45 5 -8 -6 -5 -23 8 -18 12 -32 26 -32 30 0 5 -3 24 -6 42 -4 26 -3 30
5 19 9 -12 11 -11 11 8 0 28 17 28 41 0z m-551 -42 c0 -3 -4 -8 -10 -11 -5 -3
-10 -1 -10 4 0 6 5 11 10 11 6 0 10 -2 10 -4z m-335 -193 c16 -1 33 3 37 10 4
6 11 8 15 3 4 -5 2 -11 -4 -13 -8 -3 -11 -15 -8 -31 3 -15 2 -21 -1 -14 -4 10
-9 10 -19 2 -11 -9 -17 -7 -27 9 -16 26 -29 28 -22 4 4 -12 -1 -9 -15 7 -22
26 -25 47 -14 77 6 15 9 12 18 -17 8 -29 15 -35 40 -37z m173 28 c-13 -17 -27
-30 -32 -30 -6 -1 3 13 19 29 37 38 43 39 13 1z m-512 -216 c-8 -33 0 -32 18
3 8 15 15 20 16 12 0 -16 -47 -76 -55 -69 -8 9 7 79 17 79 6 0 7 -11 4 -25z
m385 -16 c-5 -13 -10 -19 -10 -12 -1 15 10 45 15 40 3 -2 0 -15 -5 -28z m-14
-186 c-3 -10 -5 -4 -5 12 0 17 2 24 5 18 2 -7 2 -21 0 -30z m23 -98 c0 -22 9
-72 21 -110 11 -39 23 -83 25 -100 4 -25 2 -23 -10 10 -39 101 -74 298 -46
255 5 -8 10 -33 10 -55z m-684 -22 c-11 -11 -19 6 -11 24 8 17 8 17 12 0 3
-10 2 -21 -1 -24z m954 -783 c0 -5 -2 -10 -4 -10 -3 0 -8 5 -11 10 -3 6 -1 10
4 10 6 0 11 -4 11 -10z m30 -105 c0 -17 -2 -17 -10 -5 -5 8 -10 24 -10 35 0
17 2 17 10 5 5 -8 10 -24 10 -35z m134 -332 c22 -63 20 -66 -9 -13 -27 50 -29
60 -16 60 5 0 16 -21 25 -47z m-654 27 c0 -5 -2 -10 -4 -10 -3 0 -8 5 -11 10
-3 6 -1 10 4 10 6 0 11 -4 11 -10z m20 -30 c0 -5 -2 -10 -4 -10 -3 0 -8 5 -11
10 -3 6 -1 10 4 10 6 0 11 -4 11 -10z m2419 -604 c9 -11 8 -17 -4 -29 -14 -14
-12 -17 14 -33 17 -10 28 -21 25 -25 -2 -4 0 -10 6 -14 5 -3 10 -14 10 -23 0
-10 12 -34 26 -55 14 -21 23 -45 20 -53 -3 -8 1 -14 9 -14 8 0 15 -5 15 -12 0
-6 10 -23 22 -37 13 -14 16 -20 8 -13 -26 23 -34 12 -9 -14 l24 -27 -30 18
c-21 13 -13 1 28 -41 40 -42 56 -65 51 -77 -5 -15 -9 -15 -35 -1 -16 8 -29 10
-29 5 0 -5 10 -13 23 -17 l22 -7 -23 -10 c-23 -10 -23 -11 9 -24 23 -10 30
-18 26 -32 -3 -13 3 -22 18 -29 12 -6 25 -23 29 -39 13 -53 28 -83 45 -83 13
0 13 -2 2 -9 -8 -5 -10 -14 -6 -22 6 -8 4 -11 -6 -7 -55 21 -63 19 -27 -6 22
-16 45 -45 58 -72 24 -55 26 -75 5 -48 -15 18 -16 16 -13 -23 4 -49 0 -52 -29
-20 -50 54 -113 197 -207 472 -49 144 -59 181 -76 274 -6 36 -20 82 -31 103
-10 20 -19 42 -19 48 0 15 36 12 49 -4z m-1117 -323 c65 -71 164 -175 223
-233 120 -120 117 -117 242 -229 96 -86 121 -124 36 -55 -164 132 -653 608
-653 636 0 4 8 8 18 8 10 0 68 -54 134 -127z m142 91 c9 -3 26 -22 38 -42 12
-21 60 -88 106 -150 46 -62 82 -115 80 -117 -2 -3 -21 17 -41 43 -21 26 -70
84 -110 129 -102 116 -124 157 -73 137z m5 -120 c46 -54 101 -119 124 -144
102 -114 106 -119 17 -30 -85 84 -199 210 -240 264 -13 17 -13 19 0 14 8 -2
53 -49 99 -104z m208 -18 c19 -39 45 -84 58 -101 21 -29 53 -85 42 -75 -20 19
-167 235 -167 246 0 32 33 -3 67 -70z m-1137 -46 c0 -5 -4 -10 -10 -10 -5 0
-10 5 -10 10 0 6 5 10 10 10 6 0 10 -4 10 -10z m1341 -387 c13 -16 12 -17 -3
-4 -17 13 -22 21 -14 21 2 0 10 -8 17 -17z m-391 -332 c20 -6 12 -9 -35 -14
-65 -7 -81 -3 -44 12 28 11 45 12 79 2z m-1736 -9 l38 -7 -43 -31 c-37 -26
-98 -54 -117 -54 -2 0 -2 9 1 21 4 14 0 22 -15 28 -17 6 -18 9 -5 20 32 26 79
34 141 23z m-585 -46 c-2 -2 -15 -9 -29 -16 -23 -12 -24 -12 -11 3 7 10 20 17
29 17 8 0 13 -2 11 -4z m268 -32 c-3 -3 -12 -4 -19 -1 -8 3 -5 6 6 6 11 1 17
-2 13 -5z m-467 -84 c0 -5 -4 -10 -10 -10 -5 0 -10 5 -10 10 0 6 5 10 10 10 6
0 10 -4 10 -10z m-470 -99 c0 -10 -24 -21 -46 -21 -8 0 -14 7 -14 15 0 10 10
15 30 15 17 0 30 -4 30 -9z m2984 -57 c10 -38 0 -41 -19 -5 -13 26 -13 31 -1
31 7 0 17 -12 20 -26z m21 16 c3 -5 1 -10 -4 -10 -6 0 -11 5 -11 10 0 6 2 10
4 10 3 0 8 -4 11 -10z m-552 -7 c-7 -2 -19 -2 -25 0 -7 3 -2 5 12 5 14 0 19
-2 13 -5z m139 -16 c7 -8 20 -16 28 -19 12 -5 -104 -4 -120 1 -9 3 45 29 62
30 9 1 23 -5 30 -12z m-977 -27 c3 -5 2 -10 -4 -10 -5 0 -13 5 -16 10 -3 6 -2
10 4 10 5 0 13 -4 16 -10z m642 -22 c4 -7 6 -21 5 -30 -3 -14 4 -18 25 -18
l27 0 -34 -31 c-32 -29 -88 -54 -98 -44 -3 2 6 13 19 24 l24 20 -32 -9 c-18
-5 -33 -6 -33 -3 0 10 74 103 81 103 5 0 11 -6 16 -12z m-607 -18 c0 -5 -7
-10 -15 -10 -8 0 -15 5 -15 10 0 6 7 10 15 10 8 0 15 -4 15 -10z m903 -2 c18
-19 18 -51 0 -44 -8 3 -21 6 -29 6 -8 0 -14 5 -14 11 0 6 6 9 14 6 20 -8 28 4
15 20 -14 17 -2 17 14 1z m169 -40 c-9 -9 -15 -9 -24 0 -9 9 -7 12 12 12 19 0
21 -3 12 -12z m-577 -28 c-3 -5 -11 -10 -16 -10 -6 0 -7 5 -4 10 3 6 11 10 16
10 6 0 7 -4 4 -10z m554 6 c-11 -9 -69 -14 -69 -6 0 6 17 10 37 10 20 0 34 -2
32 -4z m-1039 -13 c0 -1 -5 -14 -12 -28 -13 -28 -26 -31 -52 -12 -28 20 -11
46 30 44 19 -1 34 -3 34 -4z m905 -3 c-4 -6 6 -7 25 -4 34 7 39 -4 11 -28 -18
-15 -21 -15 -36 2 -15 16 -14 40 1 40 3 0 2 -4 -1 -10z m945 -5 c0 -8 -2 -15
-4 -15 -2 0 -6 7 -10 15 -3 8 -1 15 4 15 6 0 10 -7 10 -15z m-520 -64 c0 -24
-3 -41 -7 -38 -3 4 -16 -5 -29 -18 -13 -14 -34 -25 -48 -25 -14 0 -28 -4 -31
-10 -6 -9 -50 -31 -89 -44 -11 -4 -23 -1 -28 6 -6 10 -10 10 -18 -2 -5 -8 -10
-12 -10 -8 0 3 -2 13 -5 20 -5 11 5 14 44 14 52 -1 75 9 51 24 -10 6 2 16 45
37 53 25 75 48 101 101 11 23 24 -7 24 -57z m970 43 c0 -8 -5 -12 -10 -9 -6 4
-8 11 -5 16 9 14 15 11 15 -7z m-2125 -85 c0 -53 5 -72 25 -102 25 -37 80 -67
123 -67 20 0 19 -2 -7 -15 -35 -18 -76 -12 -101 15 -9 10 -23 16 -31 13 -8 -3
-14 1 -14 10 0 9 -20 25 -46 36 -40 18 -45 23 -38 43 5 13 8 35 9 51 0 15 6
27 13 27 18 0 15 30 -5 37 -15 6 -14 7 3 14 10 4 30 6 44 5 24 -1 25 -4 25
-67z m60 1 l-13 -65 -1 48 c-1 41 14 96 24 85 1 -1 -3 -32 -10 -68z m253 29
c-41 -21 -50 -34 -18 -26 11 3 20 1 20 -4 0 -5 -6 -9 -14 -9 -8 0 -28 -12 -43
-26 l-28 -26 33 6 c17 3 47 9 65 12 l32 7 -24 -27 -24 -26 23 0 c23 0 23 0 4
-15 -23 -18 -100 -19 -134 -2 -23 12 -56 89 -45 107 3 5 23 6 44 3 33 -5 44
-1 68 21 15 14 39 26 53 26 23 -1 22 -3 -12 -21z m546 -20 c-8 -14 -24 -10
-24 6 0 9 6 12 15 9 8 -4 12 -10 9 -15z m-42 -21 c-7 -7 -12 -8 -12 -2 0 14
12 26 19 19 2 -3 -1 -11 -7 -17z m308 -38 c0 -5 -5 -10 -11 -10 -5 0 -7 5 -4
10 3 6 8 10 11 10 2 0 4 -4 4 -10z m-685 -69 c-3 -6 -11 -8 -17 -5 -6 4 -5 9
3 15 16 10 23 4 14 -10z m-135 -50 c0 -5 -9 -12 -20 -16 -11 -3 -28 -17 -39
-31 -15 -19 -24 -22 -41 -16 -22 8 -22 9 9 22 19 8 30 18 27 26 -3 8 5 14 22
17 15 2 30 5 35 6 4 0 7 -3 7 -8z m105 -29 c-4 -4 -12 -7 -18 -7 -7 0 -11 -8
-9 -18 2 -9 -5 -20 -15 -24 -10 -4 -22 -12 -26 -20 -4 -7 -21 -13 -37 -13 -23
0 -27 3 -23 20 3 11 12 20 20 20 8 0 11 5 7 12 -5 8 -2 9 10 5 12 -5 19 -2 22
10 4 13 16 19 41 20 19 1 32 -1 28 -5z m322 -114 c-3 -8 -6 -5 -6 6 -1 11 2
17 5 13 3 -3 4 -12 1 -19z m373 -157 c0 -5 -9 -7 -20 -4 -11 3 -20 7 -20 9 0
2 9 4 20 4 11 0 20 -4 20 -9z m11 -35 c-7 -8 -20 -13 -29 -11 -9 2 -25 4 -35
4 -37 2 -4 21 35 21 34 0 38 -2 29 -14z"/>
<path d="M4558 1713 c6 -2 18 -2 25 0 6 3 1 5 -13 5 -14 0 -19 -2 -12 -5z"/>
<path d="M2090 6470 c-13 -9 -13 -10 0 -10 8 0 22 5 30 10 13 9 13 10 0 10 -8
0 -22 -5 -30 -10z"/>
<path d="M1578 6263 c7 -3 16 -2 19 1 4 3 -2 6 -13 5 -11 0 -14 -3 -6 -6z"/>
<path d="M1757 6263 c-13 -12 -7 -58 9 -82 22 -31 37 -14 29 32 -7 37 -26 62
-38 50z"/>
<path d="M1530 6250 c-8 -5 -10 -10 -5 -10 6 0 17 5 25 10 8 5 11 10 5 10 -5
0 -17 -5 -25 -10z"/>
<path d="M1479 6219 l-24 -20 28 17 c15 9 27 18 27 20 0 8 -8 4 -31 -17z"/>
<path d="M2098 6063 c7 -3 16 -2 19 1 4 3 -2 6 -13 5 -11 0 -14 -3 -6 -6z"/>
<path d="M2008 6033 c6 -2 18 -2 25 0 6 3 1 5 -13 5 -14 0 -19 -2 -12 -5z"/>
<path d="M1518 6023 c6 -2 18 -2 25 0 6 3 1 5 -13 5 -14 0 -19 -2 -12 -5z"/>
<path d="M1568 6023 c6 -2 18 -2 25 0 6 3 1 5 -13 5 -14 0 -19 -2 -12 -5z"/>
<path d="M1685 6020 c-13 -6 -15 -9 -5 -9 8 0 22 4 30 9 18 12 2 12 -25 0z"/>
<path d="M2052 5555 c0 -16 2 -22 5 -12 2 9 2 23 0 30 -3 6 -5 -1 -5 -18z"/>
<path d="M2000 5535 c1 -26 2 -28 11 -12 8 14 8 22 0 30 -8 8 -11 3 -11 -18z"/>
<path d="M2281 5454 c0 -11 3 -14 6 -6 3 7 2 16 -1 19 -3 4 -6 -2 -5 -13z"/>
<path d="M2142 5140 c0 -14 2 -19 5 -12 2 6 2 18 0 25 -3 6 -5 1 -5 -13z"/>
<path d="M2131 5094 c0 -11 3 -14 6 -6 3 7 2 16 -1 19 -3 4 -6 -2 -5 -13z"/>
<path d="M2001 5053 c-17 -61 -10 -150 10 -137 14 8 11 -30 -6 -69 -17 -42
-21 -102 -5 -77 8 12 10 12 11 -5 2 -37 20 37 24 96 1 31 8 66 14 77 16 31 13
41 -4 12 l-14 -25 -1 33 c0 17 -5 32 -11 32 -8 0 -10 17 -7 50 3 28 4 50 2 50
-2 0 -8 -17 -13 -37z"/>
<path d="M1700 4965 c-7 -20 -10 -39 -7 -42 3 -3 10 12 16 33 14 49 7 56 -9 9z"/>
<path d="M2097 4970 c-3 -11 -3 -20 -1 -20 2 0 8 9 14 20 6 11 7 20 2 20 -6 0
-12 -9 -15 -20z"/>
<path d="M2139 4952 c-3 -20 -2 -29 4 -23 5 5 7 19 5 32 -3 20 -5 19 -9 -9z"/>
<path d="M1946 4915 c-3 -9 -6 -22 -5 -28 0 -7 5 -1 10 12 5 13 8 26 5 28 -2
2 -6 -3 -10 -12z"/>
<path d="M1895 4873 c-9 -27 -23 -84 -30 -128 -8 -44 -18 -93 -21 -109 -6 -26
-5 -27 15 -17 11 7 22 22 22 34 1 17 3 15 9 -8 4 -20 7 -1 7 55 1 86 5 129 18
188 11 48 -1 39 -20 -15z"/>
<path d="M1683 4808 c1 -18 8 -38 16 -44 7 -6 14 -23 14 -39 l0 -28 13 24 c7
13 13 32 14 42 0 10 5 15 10 12 11 -7 13 15 4 39 -9 23 -21 19 -28 -9 -7 -26
-24 -35 -23 -12 1 30 -4 47 -13 47 -5 0 -8 -15 -7 -32z"/>
<path d="M1951 4803 c0 -6 -4 -20 -7 -30 -5 -14 -4 -15 5 -7 7 7 11 20 8 30
-3 11 -5 14 -6 7z"/>
<path d="M1836 4774 c-10 -37 -2 -39 11 -4 6 17 8 30 3 30 -4 0 -11 -12 -14
-26z"/>
<path d="M1637 4743 c-3 -5 -7 -21 -9 -38 -3 -16 -3 -24 -1 -17 3 7 9 9 15 5
7 -4 9 0 5 10 -3 10 -3 17 2 17 4 0 8 7 8 15 0 16 -13 20 -20 8z"/>
<path d="M1742 4708 c-41 -138 -40 -137 -26 -131 8 3 18 21 23 42 11 44 24
131 19 131 -2 0 -9 -19 -16 -42z"/>
<path d="M1592 4685 c0 -16 2 -22 5 -12 2 9 2 23 0 30 -3 6 -5 -1 -5 -18z"/>
<path d="M1920 4625 c0 -8 2 -15 4 -15 2 0 6 7 10 15 3 8 1 15 -4 15 -6 0 -10
-7 -10 -15z"/>
<path d="M2280 2179 c0 -5 -5 -7 -12 -3 -7 4 -8 3 -4 -4 10 -17 36 -15 36 3 0
8 -4 15 -10 15 -5 0 -10 -5 -10 -11z"/>
<path d="M2056 2153 c-11 -11 -6 -23 9 -23 8 0 15 4 15 9 0 13 -16 22 -24 14z"/>
<path d="M2205 2133 c17 -3 38 -12 48 -20 21 -20 35 -10 17 12 -8 9 -27 14
-54 14 -34 -2 -36 -3 -11 -6z"/>
<path d="M2003 2103 c9 -2 25 -2 35 0 9 3 1 5 -18 5 -19 0 -27 -2 -17 -5z"/>
<path d="M2355 2100 c-16 -7 -17 -9 -3 -9 9 -1 20 4 23 9 7 11 7 11 -20 0z"/>
<path d="M2172 2068 c-18 -5 -32 -10 -32 -11 0 -1 29 -2 64 -2 35 0 62 3 60 7
-2 3 2 8 8 11 21 8 -66 3 -100 -5z"/>
<path d="M2045 2010 c3 -5 8 -10 11 -10 2 0 4 5 4 10 0 6 -5 10 -11 10 -5 0
-7 -4 -4 -10z"/>
<path d="M2215 2004 c-22 -8 -44 -19 -50 -25 -5 -5 7 -3 27 5 21 9 47 16 58
16 11 0 20 5 20 10 0 13 -6 12 -55 -6z"/>
<path d="M2008 1973 c6 -2 18 -2 25 0 6 3 1 5 -13 5 -14 0 -19 -2 -12 -5z"/>
<path d="M2363 1895 c-3 -9 -3 -18 -1 -21 3 -3 8 4 11 16 6 23 -1 27 -10 5z"/>
<path d="M2115 1860 c-3 -6 1 -7 9 -4 18 7 21 14 7 14 -6 0 -13 -4 -16 -10z"/>
<path d="M2176 1804 c-9 -24 -7 -54 4 -54 6 0 10 9 10 20 0 11 5 20 10 20 15
0 12 17 -4 23 -8 3 -17 -1 -20 -9z"/>
<path d="M1424 1379 c-9 -15 -76 -46 -114 -53 l-35 -7 40 21 c44 22 36 22 -42
-4 -79 -26 -71 -47 17 -43 39 1 70 -1 70 -5 0 -5 -9 -8 -19 -8 -11 0 -23 -4
-26 -10 -3 -5 1 -10 10 -10 9 0 13 -4 10 -10 -8 -13 -5 -13 68 7 102 27 120
53 31 47 -54 -4 -55 -3 -48 18 9 32 9 32 67 34 77 3 157 16 157 25 0 11 -27
11 -66 0 -17 -5 -50 -5 -73 -1 -23 4 -44 3 -47 -1z"/>
<path d="M1640 1361 c-57 -20 -103 -45 -119 -65 -10 -12 -5 -16 36 -22 l48 -7
-40 -18 c-22 -10 -51 -18 -65 -18 -14 -1 -31 -5 -39 -10 -26 -16 234 -20 278
-4 15 6 48 5 88 -3 38 -7 76 -8 91 -4 15 5 23 9 17 10 -5 1 -19 3 -30 6 -11 2
-59 7 -107 10 -81 6 -86 8 -77 25 12 23 0 24 -47 7 -27 -9 -37 -9 -58 6 -14 9
-26 20 -26 25 0 11 34 26 103 47 39 11 54 20 45 25 -18 12 -46 9 -98 -10z"/>
<path d="M1825 1360 c-4 -6 7 -10 27 -9 27 0 30 2 13 9 -27 12 -33 12 -40 0z"/>
<path d="M1748 1313 c7 -3 16 -2 19 1 4 3 -2 6 -13 5 -11 0 -14 -3 -6 -6z"/>
<path d="M2008 1273 c7 -3 16 -2 19 1 4 3 -2 6 -13 5 -11 0 -14 -3 -6 -6z"/>
<path d="M1808 1253 c17 -2 47 -2 65 0 17 2 3 4 -33 4 -36 0 -50 -2 -32 -4z"/>
<path d="M2354 1240 c1 -14 14 -29 36 -41 l35 -18 -35 6 c-19 3 -39 11 -45 17
-14 15 -72 8 -79 -10 -7 -17 1 -20 67 -28 26 -3 78 -18 115 -33 62 -25 118
-38 251 -63 42 -7 59 -6 82 6 37 19 39 37 3 23 -21 -7 -42 -5 -88 10 -34 10
-74 23 -91 27 -16 4 -33 8 -37 9 -5 2 -13 3 -19 4 -5 0 -7 6 -3 12 4 8 0 9
-15 4 -12 -4 -21 -2 -21 4 0 6 -19 11 -42 12 -24 0 -37 3 -30 6 20 8 14 20
-13 27 -14 4 -25 13 -25 21 0 8 -4 15 -9 15 -5 0 -16 3 -24 6 -10 3 -14 -1
-13 -16z m-34 -50 c0 -5 -8 -10 -17 -10 -15 0 -16 2 -3 10 19 12 20 12 20 0z"/>
<path d="M1065 1194 l-30 -14 30 6 c31 6 41 11 34 18 -2 2 -17 -2 -34 -10z"/>
<path d="M2155 1190 c-3 -5 1 -10 9 -10 9 0 16 5 16 10 0 6 -4 10 -9 10 -6 0
-13 -4 -16 -10z"/>
<path d="M1050 1160 c0 -13 11 -13 30 0 12 8 11 10 -7 10 -13 0 -23 -4 -23
-10z"/>
<path d="M2115 1165 c-5 -2 -28 -9 -51 -14 -99 -26 -173 -137 -158 -238 6 -42
35 -93 54 -93 4 0 5 24 3 53 -6 67 16 121 58 143 18 9 63 17 103 19 62 3 73 7
93 30 25 29 30 67 10 83 -13 11 -95 24 -112 17z m45 -25 c-8 -5 -27 -10 -42
-10 -15 0 -38 -4 -52 -10 -38 -14 -32 -2 7 15 37 17 111 21 87 5z"/>
<path d="M1280 1150 c-9 -6 -10 -10 -3 -10 6 0 15 5 18 10 8 12 4 12 -15 0z"/>
<path d="M2901 1156 c2 -2 15 -9 29 -15 24 -11 24 -11 6 3 -16 13 -49 24 -35
12z"/>
<path d="M2715 1120 c3 -5 8 -10 11 -10 2 0 4 5 4 10 0 6 -5 10 -11 10 -5 0
-7 -4 -4 -10z"/>
<path d="M2880 1110 c8 -5 22 -9 30 -9 10 0 8 3 -5 9 -27 12 -43 12 -25 0z"/>
<path d="M2225 1050 c-3 -5 -1 -10 4 -10 6 0 11 5 11 10 0 6 -2 10 -4 10 -3 0
-8 -4 -11 -10z"/>
<path d="M2275 1031 c-17 -15 -75 -24 -75 -11 0 6 -5 8 -11 4 -8 -5 -8 -9 1
-14 6 -4 11 -11 10 -16 -3 -22 32 -13 62 15 18 17 31 31 28 31 -4 0 -10 -4
-15 -9z"/>
<path d="M2443 1014 c-16 -17 -33 -24 -59 -24 -36 0 -37 0 -19 20 20 23 14 26
-18 8 -12 -6 -35 -14 -50 -17 -35 -7 -31 -24 6 -27 59 -4 48 -21 -23 -34 -82
-15 -114 -6 -132 37 -11 26 -12 27 -15 6 -3 -12 1 -31 6 -42 9 -16 8 -22 -5
-29 -19 -11 96 -5 230 12 84 10 120 28 79 39 -10 3 -2 6 17 7 19 1 44 6 55 11
15 7 10 8 -22 6 -24 -1 -43 -1 -43 1 0 1 7 14 16 27 21 31 6 31 -23 -1z"/>
<path d="M2900 994 c0 -11 -3 -29 -6 -40 -8 -29 20 -38 53 -17 l26 17 -27 11
c-14 6 -24 14 -21 17 3 3 -1 11 -10 18 -12 10 -15 9 -15 -6z"/>
<path d="M2020 980 c-9 -17 -8 -20 7 -20 15 0 16 -2 3 -11 -12 -7 -8 -9 14 -7
23 2 29 8 32 31 2 23 -1 27 -21 27 -14 0 -29 -9 -35 -20z"/>
<path d="M2999 971 c-8 -9 -13 -23 -11 -29 2 -7 -6 -12 -18 -12 -13 0 -20 -5
-17 -12 2 -7 14 -12 26 -11 11 2 21 -2 21 -7 0 -6 13 -9 28 -8 35 2 52 -8 52
-31 0 -11 9 -21 21 -24 12 -3 18 -10 14 -16 -3 -6 0 -11 9 -11 8 0 25 -12 38
-27 16 -19 33 -28 56 -29 41 -1 41 24 -1 44 -32 15 -35 45 -10 82 16 24 16 24
-1 10 -10 -8 -22 -25 -27 -39 l-10 -25 -22 32 c-12 17 -30 33 -39 36 -11 2
-18 14 -18 27 0 17 -3 20 -11 12 -21 -21 -73 16 -62 44 7 17 2 15 -18 -6z"/>
<path d="M2867 963 c-4 -3 -7 -11 -7 -17 0 -6 5 -5 12 2 6 6 9 14 7 17 -3 3
-9 2 -12 -2z"/>
<path d="M2800 935 c-7 -8 -20 -15 -30 -15 -10 0 -23 -7 -30 -15 -15 -19 -11
-19 33 0 19 8 37 21 40 30 8 19 3 19 -13 0z"/>
<path d="M2510 936 c0 -2 8 -10 18 -17 15 -13 16 -12 3 4 -13 16 -21 21 -21
13z"/>
<path d="M3250 910 c0 -5 7 -7 15 -4 8 4 15 8 15 10 0 2 -7 4 -15 4 -8 0 -15
-4 -15 -10z"/>
<path d="M2499 871 c13 -10 32 -28 41 -41 10 -13 20 -18 23 -13 9 14 -37 59
-66 67 -22 5 -22 5 2 -13z"/>
<path d="M2664 873 c-11 -10 -29 -23 -40 -29 -10 -6 -19 -17 -19 -25 0 -21 26
-17 39 6 15 27 33 46 43 44 4 -1 19 -1 33 1 23 1 23 2 5 10 -30 13 -39 12 -61
-7z"/>
<path d="M2285 860 c3 -5 8 -10 11 -10 2 0 4 5 4 10 0 6 -5 10 -11 10 -5 0 -7
-4 -4 -10z"/>
<path d="M2413 793 c9 -2 23 -2 30 0 6 3 -1 5 -18 5 -16 0 -22 -2 -12 -5z"/>
<path d="M2488 762 c15 -15 29 -26 31 -25 8 5 -30 53 -44 53 -9 0 -4 -10 13
-28z"/>
<path d="M2557 773 c-4 -3 -7 -11 -7 -17 0 -6 5 -5 12 2 6 6 9 14 7 17 -3 3
-9 2 -12 -2z"/>
<path d="M2471 696 c7 -15 15 -23 17 -16 3 7 -3 19 -13 28 -15 16 -16 15 -4
-12z"/>
</g>
</svg>
