<?xml version="1.0" standalone="no"?>
<!DOCTYPE svg PUBLIC "-//W3C//DTD SVG 20010904//EN"
 "http://www.w3.org/TR/2001/REC-SVG-20010904/DTD/svg10.dtd">
<svg version="1.0" xmlns="http://www.w3.org/2000/svg"
 width="500.000000pt" height="414.000000pt" viewBox="0 0 500.000000 414.000000"
 preserveAspectRatio="xMidYMid meet">

<g transform="translate(0.000000,414.000000) scale(0.100000,-0.100000)"
fill="#000000" stroke="none">
<path d="M2278 3004 c-21 -9 -38 -22 -38 -29 0 -7 -12 -21 -27 -30 -15 -10
-47 -38 -72 -61 -25 -24 -60 -51 -78 -59 -18 -9 -33 -20 -33 -24 0 -4 -17 -16
-37 -27 -21 -10 -40 -22 -43 -25 -10 -12 -41 -19 -34 -8 14 23 -39 -14 -137
-96 -59 -50 -110 -85 -123 -85 -12 0 -75 11 -141 25 -66 14 -125 25 -131 25
-7 0 -26 -22 -44 -50 -18 -27 -37 -50 -44 -50 -6 0 -2 -8 9 -17 20 -15 20 -15
-3 -10 -24 6 -52 -15 -52 -39 0 -29 47 -35 163 -19 129 17 263 41 278 51 16
10 0 -38 -17 -52 -8 -6 -12 -18 -9 -25 3 -8 -4 -21 -16 -29 -12 -8 -31 -23
-41 -32 -10 -10 -22 -18 -28 -18 -5 0 -10 -7 -10 -15 0 -8 -9 -15 -20 -15 -11
0 -20 -4 -20 -10 0 -5 -7 -10 -15 -10 -8 0 -15 -5 -15 -11 0 -14 95 -5 114 10
9 7 70 33 141 61 40 15 181 74 232 97 28 13 55 23 58 23 44 0 177 108 196 158
11 29 1 141 -13 159 -6 7 -8 22 -5 32 3 12 -1 22 -10 26 -14 5 -13 8 2 25 10
11 15 25 12 33 -7 18 12 47 19 30 4 -9 11 -9 30 -1 18 9 21 14 13 25 -9 9 -8
13 0 13 6 0 10 5 9 12 -2 6 10 18 25 27 25 14 29 14 40 1 7 -9 20 -16 30 -17
43 -2 53 -4 67 -13 11 -7 12 -12 3 -21 -8 -8 -20 -8 -47 2 -33 12 -37 11 -60
-11 -14 -12 -23 -27 -20 -31 7 -12 76 -11 106 0 13 5 48 11 78 14 30 3 46 3
35 0 -55 -15 -68 -24 -57 -35 9 -9 23 -6 56 11 27 13 76 25 123 30 72 7 76 8
50 19 -16 7 -72 12 -125 12 -95 0 -98 1 -136 32 -32 26 -49 33 -95 35 -36 2
-70 -3 -93 -13z m132 -74 c0 -5 -4 -10 -9 -10 -6 0 -13 5 -16 10 -3 6 1 10 9
10 9 0 16 -4 16 -10z m-280 -201 c0 -18 -11 -9 -21 17 -11 31 -18 28 -21 -9
-1 -14 -5 -24 -9 -21 -4 2 -10 0 -13 -4 -8 -13 -99 -9 -103 4 -5 16 42 44 84
50 20 2 39 7 42 10 6 6 41 -34 41 -47z m20 47 c0 -11 -19 -15 -25 -6 -3 5 1
10 9 10 9 0 16 -2 16 -4z m-350 -181 c-7 -8 -20 -15 -28 -15 -13 0 -12 3 4 15
25 19 40 19 24 0z m227 -68 c9 -10 -66 -81 -118 -113 -66 -39 -87 -45 -44 -10
16 13 30 33 30 44 0 41 106 104 132 79z m-147 -102 c-7 -9 -15 -13 -19 -10 -3
3 1 10 9 15 21 14 24 12 10 -5z m-55 -25 c-3 -5 -12 -10 -18 -10 -7 0 -6 4 3
10 19 12 23 12 15 0z"/>
<path d="M3225 2733 c-16 -8 -38 -22 -47 -30 -11 -10 -52 -18 -121 -23 -72 -5
-112 -13 -130 -25 -15 -9 -27 -18 -27 -19 0 0 32 1 71 2 58 3 86 -1 146 -23
41 -14 77 -24 80 -21 3 3 -1 8 -10 12 -15 5 -15 7 -1 22 15 14 20 13 60 -8 39
-22 47 -23 79 -11 43 15 55 9 55 -32 0 -24 3 -28 10 -17 8 12 10 10 10 -10 0
-26 48 -80 83 -93 17 -7 24 -27 8 -27 -19 0 -22 -71 -6 -126 25 -85 98 -156
190 -183 39 -11 103 -25 143 -31 41 -5 81 -14 90 -19 29 -15 109 -24 116 -12
6 9 -63 61 -82 61 -10 0 -52 55 -52 68 0 27 -254 247 -338 294 -22 12 -36 32
-52 75 -26 73 -82 150 -118 164 -15 6 -35 15 -44 20 -27 14 -80 10 -113 -8z
m139 -39 c20 -8 20 -28 1 -44 -13 -10 -19 -10 -35 5 -17 15 -28 17 -80 8 -33
-5 -60 -8 -60 -7 0 2 19 12 43 23 42 20 101 27 131 15z m317 -491 c13 -16 12
-17 -3 -4 -17 13 -22 21 -14 21 2 0 10 -8 17 -17z m30 0 c13 -16 12 -17 -3 -4
-17 13 -22 21 -14 21 2 0 10 -8 17 -17z m24 -43 c3 -5 1 -10 -4 -10 -6 0 -11
5 -11 10 0 6 2 10 4 10 3 0 8 -4 11 -10z"/>
<path d="M2400 2605 c0 -32 -61 -116 -112 -155 -54 -40 -86 -57 -183 -94 -76
-30 -151 -74 -141 -84 4 -3 12 0 18 6 16 16 29 15 27 0 -3 -29 2 -58 10 -58 5
0 15 15 21 34 14 44 38 66 50 46 7 -12 12 -11 28 3 10 9 24 17 30 17 6 0 17 9
25 21 14 19 16 20 53 4 30 -13 36 -18 24 -25 -8 -5 -30 -10 -48 -10 -60 0
-114 -42 -95 -73 4 -7 9 -2 13 13 5 20 11 24 31 22 14 -2 51 4 84 13 33 8 76
15 98 15 l38 0 -26 -27 c-21 -23 -27 -25 -35 -13 -5 8 -13 11 -17 6 -4 -4 0
-13 10 -20 25 -19 22 -38 -6 -31 -17 5 -31 -1 -51 -22 -28 -27 -28 -27 -7 -44
11 -9 17 -19 14 -23 -12 -11 -59 -6 -79 9 -10 8 -27 15 -36 15 -34 0 -16 34
23 43 27 7 59 57 36 57 -15 0 -79 -39 -89 -54 -4 -6 -6 -17 -3 -23 2 -7 2 -13
-1 -13 -13 0 -131 64 -150 81 -21 20 -54 26 -54 10 0 -5 45 -33 100 -62 94
-49 124 -72 68 -50 -28 11 -117 6 -130 -7 -5 -5 3 -7 21 -4 16 2 32 -1 36 -8
8 -12 -21 -43 -45 -48 -19 -5 -40 -22 -40 -33 0 -15 47 -10 60 6 7 8 22 15 34
15 16 0 21 7 22 26 1 14 4 27 6 29 9 10 129 -22 145 -38 16 -16 14 -17 -35
-17 l-52 0 17 -27 c13 -19 14 -28 5 -31 -6 -2 -12 -9 -12 -16 0 -25 -38 -49
-66 -42 -23 6 -26 4 -21 -13 4 -17 0 -21 -20 -21 -21 0 -23 -3 -14 -14 9 -11
9 -16 -1 -23 -7 -4 -13 -15 -13 -23 0 -8 -11 -17 -25 -20 -22 -5 -23 -7 -6
-13 14 -6 16 -10 7 -21 -6 -7 -8 -16 -4 -19 3 -4 0 -7 -7 -7 -11 0 -11 -3 -2
-12 7 -7 12 -20 12 -30 0 -20 26 -35 58 -32 23 1 44 14 24 14 -15 0 -17 106
-2 115 5 3 7 12 3 20 -3 8 0 15 6 15 6 0 11 6 11 14 0 8 14 23 30 33 17 9 30
21 30 26 0 10 50 57 62 57 5 0 18 9 30 20 12 11 29 20 37 20 13 1 13 2 -1 11
-34 20 -20 32 32 27 41 -4 50 -2 48 10 -4 20 52 28 63 10 6 -9 9 -10 9 -1 0 7
-10 18 -22 24 l-22 12 27 21 c14 11 41 32 59 46 18 14 49 41 69 60 39 36 41
38 105 81 56 38 79 65 60 72 -8 3 -17 3 -20 -1 -4 -3 -16 -7 -28 -9 -12 -2
-26 -7 -32 -12 -6 -5 -20 -7 -31 -5 -10 1 -25 -2 -31 -7 -7 -5 -24 -7 -38 -3
-19 4 -33 1 -47 -12 -27 -24 -115 -24 -170 1 -59 27 -47 42 29 35 18 -1 22 3
20 17 -2 13 3 17 17 16 11 -1 27 0 35 3 12 5 12 8 -4 20 -25 18 -18 24 41 34
40 6 36 16 -5 11 -8 -2 -12 5 -10 16 2 10 14 19 28 21 14 2 30 8 35 13 7 7 4
8 -7 4 -10 -4 -18 -5 -18 -1 0 3 15 10 33 15 30 9 30 10 10 16 -13 4 -20 11
-17 16 3 5 0 9 -6 9 -7 0 -10 6 -7 14 4 10 0 14 -14 13 -12 -1 -19 -9 -19 -22z
m80 -255 c0 -5 -4 -10 -9 -10 -5 0 -18 -3 -28 -6 -16 -6 -16 -5 2 9 23 19 35
21 35 7z m55 -10 c3 -5 -1 -10 -9 -10 -9 0 -16 5 -16 10 0 6 4 10 9 10 6 0 13
-4 16 -10z m-20 -27 c18 -14 18 -15 2 -9 -10 3 -23 6 -28 6 -5 0 -9 5 -9 10 0
14 12 12 35 -7z m-230 -203 c-3 -5 -12 -10 -18 -10 -7 0 -6 4 3 10 19 12 23
12 15 0z"/>
<path d="M2604 2518 c-5 -7 -9 -19 -10 -28 -1 -8 -5 -24 -9 -35 -7 -20 -6 -20
9 -1 9 11 16 25 16 30 0 6 5 4 10 -4 6 -9 10 -10 10 -3 0 6 -5 15 -11 18 -6 4
-8 13 -5 21 7 17 0 18 -10 2z"/>
<path d="M2520 2495 c-7 -8 -19 -15 -28 -15 -8 0 -12 -3 -9 -7 8 -8 -13 -34
-22 -28 -4 2 -8 -2 -8 -10 0 -20 2 -20 52 18 28 22 41 38 36 46 -6 9 -11 8
-21 -4z"/>
<path d="M1560 2410 c-27 -17 0 -24 33 -7 30 15 31 16 7 16 -14 0 -32 -3 -40
-9z"/>
<path d="M2370 2385 c-19 -14 -31 -25 -26 -25 15 0 66 31 66 40 0 14 -2 13
-40 -15z"/>
<path d="M3160 2381 c-6 -12 -7 -21 -1 -21 10 0 24 30 17 37 -2 3 -9 -5 -16
-16z"/>
<path d="M1500 2365 c-11 -13 -10 -14 4 -9 9 3 16 10 16 15 0 13 -6 11 -20 -6z"/>
<path d="M1895 2358 c-16 -6 -50 -17 -75 -26 -51 -17 -94 -52 -63 -52 13 0 14
-3 6 -11 -9 -9 -7 -16 10 -29 34 -26 57 -32 57 -14 0 9 5 12 12 8 7 -5 9 -2 6
8 -4 10 10 33 38 63 24 27 44 52 44 57 0 4 -1 8 -2 7 -2 -1 -16 -6 -33 -11z"/>
<path d="M3805 2290 c3 -5 10 -10 16 -10 5 0 9 5 9 10 0 6 -7 10 -16 10 -8 0
-12 -4 -9 -10z"/>
<path d="M3017 2276 c-10 -25 -9 -38 3 -31 6 3 10 2 10 -4 0 -5 -8 -15 -17
-20 -17 -10 -17 -10 0 -11 9 0 17 5 17 11 0 5 4 8 10 4 5 -3 7 -11 4 -18 -3
-8 0 -24 5 -38 5 -13 10 -18 10 -11 1 8 6 10 14 6 6 -4 4 2 -6 13 -10 11 -17
24 -16 29 2 8 -1 18 -20 68 -7 18 -8 18 -14 2z"/>
<path d="M3135 2230 l6 -55 -20 35 c-20 36 -33 42 -37 15 -1 -9 6 -21 17 -28
23 -14 26 -32 3 -23 -8 3 -12 2 -9 -4 3 -6 13 -10 21 -10 19 0 18 -15 -2 -35
-9 -9 -13 -19 -9 -23 4 -4 9 -2 12 3 12 32 21 39 37 26 9 -7 14 -17 11 -21 -3
-4 5 -10 16 -13 12 -3 18 -10 15 -15 -3 -6 1 -13 10 -16 9 -4 14 -13 10 -21
-4 -11 2 -15 24 -15 32 0 40 -14 15 -24 -25 -9 -17 -25 13 -22 15 2 27 9 27
16 0 7 6 15 14 18 10 3 13 -2 9 -20 -4 -21 -1 -25 16 -21 17 4 16 0 -9 -21
-55 -47 -140 -86 -188 -86 -43 0 -93 -25 -134 -66 -16 -16 -14 -15 -68 -19
-22 -2 -50 3 -62 11 -18 11 -23 11 -34 -2 -7 -8 -19 -12 -28 -8 -9 3 -20 7
-26 8 -5 1 -15 5 -22 9 -6 4 -15 2 -18 -4 -4 -5 -14 -7 -24 -3 -25 10 -81 13
-76 3 3 -4 -3 -17 -15 -29 -11 -11 -20 -31 -20 -45 0 -24 2 -24 48 -18 26 3
58 13 72 22 19 13 48 16 123 15 54 0 100 3 103 8 3 4 24 8 47 9 23 0 36 3 30
6 -17 6 -16 23 1 23 8 0 17 -11 20 -25 4 -14 13 -25 21 -25 9 0 12 6 9 15 -4
8 -1 15 5 15 6 0 11 -4 11 -10 0 -5 17 -10 38 -10 47 0 111 -18 129 -35 15
-16 18 -127 4 -154 -5 -9 -6 -23 -1 -30 5 -10 10 -3 14 20 4 19 12 53 18 76 6
23 8 54 6 68 -6 27 -5 27 33 30 14 1 39 5 55 9 28 7 28 7 10 -13 -10 -11 -16
-26 -13 -33 4 -10 6 -10 6 0 1 13 31 17 31 3 0 -11 68 -6 104 8 16 6 36 9 45
6 9 -2 53 -7 98 -9 80 -5 83 -4 81 17 0 12 3 30 6 39 11 25 -27 42 -66 29 -17
-6 -35 -11 -40 -11 -12 0 46 80 83 116 16 15 29 31 29 36 0 13 -28 9 -37 -6
-20 -34 -92 -112 -127 -138 -47 -34 -118 -40 -135 -10 -9 15 -11 15 -20 -8 -7
-18 -10 -20 -10 -7 -1 9 -8 17 -16 17 -8 0 -15 5 -15 11 0 5 -4 8 -9 4 -5 -3
-12 -1 -16 4 -6 11 -171 8 -182 -3 -3 -3 -12 -1 -20 6 -10 8 -20 8 -41 -1
l-27 -11 30 25 c17 14 39 25 50 25 11 0 40 7 65 16 25 9 57 13 72 10 16 -3 28
-1 28 4 0 17 38 11 49 -7 10 -17 10 -17 11 -1 0 9 -4 19 -8 22 -20 12 -70 15
-99 5 -65 -21 -71 -5 -12 33 102 65 116 71 150 56 17 -7 28 -20 27 -28 -2 -9
10 -29 25 -45 25 -28 27 -29 27 -8 0 12 -5 25 -11 29 -8 5 -7 9 4 15 19 11 49
1 41 -13 -4 -6 7 -8 28 -5 30 4 34 2 36 -21 3 -33 3 -33 26 -16 16 11 17 17 8
26 -15 15 -16 68 0 68 6 0 20 -7 30 -17 26 -23 33 -10 13 25 -19 32 -13 31
-217 18 -80 -6 -140 11 -213 60 -60 40 -76 61 -100 134 -11 30 -25 64 -33 75
-11 17 -12 13 -7 -35z m615 -479 c0 -26 -17 -36 -36 -21 -11 10 -12 16 -3 26
17 20 39 17 39 -5z m-63 -17 c-3 -3 -12 -4 -19 -1 -8 3 -5 6 6 6 11 1 17 -2
13 -5z"/>
<path d="M1137 2221 c-4 -17 -3 -21 5 -13 5 5 8 16 6 23 -3 8 -7 3 -11 -10z"/>
<path d="M1030 2226 c0 -9 31 -36 42 -36 5 0 8 6 6 13 -3 6 -9 12 -14 12 -5 0
-15 4 -21 8 -7 5 -13 6 -13 3z"/>
<path d="M1740 2215 c-7 -9 -11 -17 -8 -20 2 -2 12 4 21 15 9 11 13 20 8 20
-5 0 -14 -7 -21 -15z"/>
<path d="M2953 2178 c-18 -24 -24 -38 -16 -38 10 0 36 40 30 46 -2 3 -9 -1
-14 -8z"/>
<path d="M1115 2120 c3 -19 7 -43 8 -53 1 -10 12 -20 27 -24 14 -3 31 -10 38
-16 10 -8 16 -7 21 1 8 14 41 6 53 -12 5 -8 8 -7 8 1 0 17 -33 33 -69 33 -32
0 -71 32 -71 59 0 9 -5 23 -11 31 -8 11 -9 6 -4 -20z"/>
<path d="M1832 2130 c0 -14 2 -19 5 -12 2 6 2 18 0 25 -3 6 -5 1 -5 -13z"/>
<path d="M2928 2107 c7 -8 8 -18 4 -22 -4 -5 -1 -5 6 -1 17 10 15 23 -4 30
-13 5 -14 4 -6 -7z"/>
<path d="M1068 2103 c6 -2 18 -2 25 0 6 3 1 5 -13 5 -14 0 -19 -2 -12 -5z"/>
<path d="M1791 2080 c14 -31 19 -36 19 -24 0 6 -7 19 -16 30 -14 18 -14 18 -3
-6z"/>
<path d="M1870 2079 c0 -5 -4 -7 -10 -4 -14 9 -12 -1 3 -13 10 -8 13 -6 14 9
1 10 0 19 -3 19 -2 0 -4 -5 -4 -11z"/>
<path d="M3030 2074 c0 -8 5 -12 10 -9 6 4 8 11 5 16 -9 14 -15 11 -15 -7z"/>
<path d="M3116 2060 c35 -14 37 -28 7 -45 -15 -9 -19 -13 -8 -9 11 3 30 9 43
12 15 3 22 10 19 21 -2 9 -9 15 -15 14 -7 -2 -12 2 -12 7 0 6 -12 10 -27 9
-26 0 -26 -1 -7 -9z"/>
<path d="M950 2036 c0 -19 13 -27 28 -17 8 4 5 11 -8 19 -16 10 -20 10 -20 -2z"/>
<path d="M1610 2042 c0 -5 7 -9 15 -9 8 0 12 4 9 9 -3 4 -9 8 -15 8 -5 0 -9
-4 -9 -8z"/>
<path d="M3940 2043 c-131 -4 -140 -7 -134 -40 3 -15 10 -31 16 -34 6 -4 8
-14 5 -24 -4 -9 -3 -13 3 -10 5 3 12 -6 16 -20 4 -18 11 -24 21 -21 8 3 17 6
21 6 3 0 -5 11 -18 25 -21 22 -21 25 -6 25 14 0 17 5 12 20 -3 11 -9 29 -12
40 -8 25 9 26 44 2 44 -31 110 -52 158 -52 27 0 67 -10 101 -25 30 -14 58 -24
60 -21 13 13 -22 42 -103 84 l-89 47 -95 -2z"/>
<path d="M1546 2021 c-3 -5 1 -12 10 -15 8 -3 13 -2 9 3 -3 5 1 12 7 14 8 4 7
6 -4 6 -9 1 -19 -3 -22 -8z"/>
<path d="M2579 2014 c-12 -15 -10 -16 20 -9 19 4 36 3 40 -3 3 -5 29 -20 56
-33 67 -31 73 -33 50 -14 -11 8 -31 26 -45 39 -33 30 -103 42 -121 20z"/>
<path d="M1641 2011 c-7 -5 -22 -6 -32 -4 -10 3 -19 0 -19 -6 0 -7 21 -11 54
-11 29 0 77 -5 106 -10 38 -7 57 -7 66 1 27 22 13 29 -54 28 -38 -1 -77 1 -88
5 -10 3 -25 2 -33 -3z"/>
<path d="M1873 2013 c-23 -8 -14 -31 12 -29 14 0 25 4 25 7 0 12 -25 26 -37
22z"/>
<path d="M2242 2007 c-12 -6 -22 -14 -22 -19 0 -5 4 -7 9 -4 5 3 39 7 75 8 36
1 64 3 62 5 -11 11 -105 18 -124 10z"/>
<path d="M1501 1890 c0 -25 4 -54 9 -65 6 -15 9 -9 9 25 0 25 -4 54 -9 65 -6
15 -9 9 -9 -25z"/>
<path d="M2397 1918 c-7 -5 -2 -8 16 -8 15 0 27 -4 27 -8 0 -5 21 -9 48 -10
l47 -1 -30 16 c-33 18 -88 24 -108 11z"/>
<path d="M2771 1902 c2 -15 0 -33 -5 -40 -12 -20 -1 -25 38 -18 33 6 35 8 23
28 -14 25 -44 58 -53 58 -3 0 -4 -12 -3 -28z"/>
<path d="M1295 1900 c10 -11 20 -20 23 -20 3 0 -3 9 -13 20 -10 11 -20 20 -23
20 -3 0 3 -9 13 -20z"/>
<path d="M788 1884 c-16 -8 -28 -17 -28 -19 0 -11 19 -4 41 15 29 23 24 25
-13 4z"/>
<path d="M3810 1891 c-8 -6 -17 -8 -20 -6 -3 2 -6 -5 -6 -15 0 -18 2 -18 23 2
30 28 32 36 3 19z"/>
<path d="M3576 1882 c-3 -6 -1 -14 5 -17 15 -10 25 3 12 16 -7 7 -13 7 -17 1z"/>
<path d="M3968 1883 c6 -2 18 -2 25 0 6 3 1 5 -13 5 -14 0 -19 -2 -12 -5z"/>
<path d="M2340 1870 c-8 -5 -13 -10 -10 -11 3 0 12 -2 20 -4 46 -10 80 -16
120 -21 66 -9 39 10 -41 30 -76 19 -70 18 -89 6z"/>
<path d="M1396 1838 c-3 -18 -2 -55 3 -83 8 -50 8 -49 12 33 4 83 -4 110 -15
50z"/>
<path d="M3882 1857 c-6 -6 -14 -25 -17 -40 -7 -25 -11 -27 -36 -22 -18 4 -29
2 -29 -4 0 -6 9 -11 19 -11 11 0 23 -4 26 -10 10 -17 25 -11 25 10 0 11 5 20
12 20 6 0 9 3 6 6 -4 3 -2 19 2 35 9 32 8 35 -8 16z"/>
<path d="M3975 1850 c-18 -8 -17 -9 7 -9 14 -1 35 -4 45 -7 16 -5 16 -4 -1 10
-22 18 -23 18 -51 6z"/>
<path d="M3912 1808 c-23 -37 -30 -77 -19 -95 5 -8 4 -13 -2 -13 -6 0 -11 4
-11 9 0 6 -22 9 -50 9 -36 -1 -50 -5 -50 -16 0 -9 7 -13 20 -9 12 3 20 0 20
-7 0 -7 16 -13 38 -14 55 -4 113 -21 141 -43 38 -30 39 -12 0 21 -27 23 -31
31 -20 39 8 5 10 14 6 22 -5 8 2 5 14 -6 19 -16 24 -17 31 -5 6 9 4 22 -4 35
-7 11 -15 30 -18 42 -5 19 -3 21 18 13 13 -5 24 -6 24 -1 0 11 -40 22 -52 15
-4 -3 -9 -22 -9 -42 -1 -20 -3 -29 -6 -19 -2 9 -9 17 -14 17 -5 0 -9 5 -9 11
0 5 4 8 9 5 5 -4 7 4 4 15 -5 19 -9 14 -24 -24 -10 -26 -16 -53 -13 -62 4 -8
1 -15 -5 -15 -18 0 -6 101 16 143 2 4 0 7 -6 7 -5 0 -18 -15 -29 -32z"/>
<path d="M2303 1814 c5 -5 34 -14 65 -21 31 -6 69 -15 85 -19 37 -9 35 11 -3
25 -41 14 -157 26 -147 15z"/>
<path d="M1318 1804 c-5 -4 -8 -30 -7 -58 l1 -51 9 40 c11 44 8 81 -3 69z"/>
<path d="M2282 1748 c3 -8 20 -11 47 -9 29 2 41 -1 37 -8 -4 -6 1 -11 11 -11
11 0 24 -5 29 -10 13 -13 46 -2 41 14 -5 17 -66 35 -120 35 -34 1 -47 -3 -45
-11z"/>
<path d="M756 1719 c-15 -12 -25 -27 -22 -34 3 -8 -2 -19 -10 -25 -8 -7 -14
-19 -14 -28 0 -8 18 11 41 42 45 63 47 78 5 45z"/>
<path d="M2540 1729 c0 -12 29 -38 43 -39 16 0 6 18 -18 34 -16 11 -25 12 -25
5z"/>
<path d="M898 1723 c12 -2 30 -2 40 0 9 3 -1 5 -23 4 -22 0 -30 -2 -17 -4z"/>
<path d="M848 1713 c7 -3 16 -2 19 1 4 3 -2 6 -13 5 -11 0 -14 -3 -6 -6z"/>
<path d="M2480 1701 c0 -5 5 -13 10 -16 6 -3 10 -2 10 4 0 5 -4 13 -10 16 -5
3 -10 2 -10 -4z"/>
<path d="M2390 1693 c0 -4 -27 -7 -60 -6 -33 1 -60 -3 -60 -8 0 -5 10 -9 23
-10 12 0 36 -2 52 -4 41 -4 77 5 72 18 -4 13 -27 22 -27 10z"/>
<path d="M2197 1660 c-3 -12 -10 -19 -16 -16 -5 4 -12 2 -16 -4 -4 -6 -10 -8
-15 -5 -5 3 -11 1 -15 -5 -4 -6 -11 -8 -16 -5 -5 4 -9 -3 -9 -14 0 -12 -7 -21
-15 -21 -9 0 -15 9 -15 23 l-1 22 -19 -24 c-11 -13 -20 -19 -20 -13 0 13 -24
10 -44 -7 -13 -11 -19 -11 -31 -1 -17 14 -55 4 -55 -15 0 -9 -10 -13 -27 -12
-19 1 -27 -2 -25 -11 2 -9 -4 -11 -18 -7 -14 5 -26 1 -34 -10 -10 -15 -14 -15
-41 -1 -35 18 -52 7 -36 -22 13 -24 14 -35 3 -28 -4 2 -16 -2 -27 -10 -15 -11
-16 -17 -7 -26 19 -19 14 -31 -9 -25 -12 3 -33 -2 -47 -11 -15 -9 -23 -11 -19
-4 5 8 2 12 -8 12 -12 0 -15 -6 -10 -20 4 -13 -3 -37 -20 -65 -27 -48 -39 -55
-49 -29 -9 23 -28 6 -26 -24 3 -42 1 -45 -16 -32 -13 11 -16 10 -21 -9 -5 -18
-11 -21 -30 -16 -16 4 -22 2 -18 -5 4 -6 2 -17 -5 -25 -12 -15 4 -56 41 -104
11 -13 19 -32 19 -41 0 -10 7 -24 16 -31 14 -12 20 -9 40 16 13 17 24 35 24
42 0 6 16 32 35 57 43 57 89 128 90 141 2 21 18 45 29 45 15 0 96 75 96 88 0
10 32 27 70 38 22 6 48 23 100 67 31 26 81 47 112 47 18 0 55 11 83 24 27 14
53 22 57 20 5 -3 8 -1 8 4 0 5 9 12 20 15 29 7 25 29 -5 25 -15 -2 -29 4 -38
16 -13 18 -14 18 -20 -4z"/>
<path d="M3603 1662 c-13 -2 -23 -8 -23 -14 0 -5 7 -8 15 -4 13 5 14 2 4 -17
-12 -21 -11 -21 8 -4 23 20 37 22 30 5 -2 -7 -1 -22 3 -33 6 -18 8 -16 14 10
6 30 8 30 64 29 32 0 65 -5 73 -9 8 -5 22 -8 32 -7 10 2 26 -2 35 -10 11 -9
14 -10 8 0 -4 7 -2 12 6 12 7 1 1 7 -13 15 -25 13 -212 33 -256 27z"/>
<path d="M780 1641 c-12 -24 -13 -34 -1 -27 9 6 22 46 15 46 -2 0 -8 -9 -14
-19z"/>
<path d="M930 1649 c0 -5 9 -9 20 -9 11 0 20 2 20 4 0 2 -9 6 -20 9 -11 3 -20
1 -20 -4z"/>
<path d="M3563 1614 c-7 -7 -13 -18 -13 -24 0 -15 20 -12 26 5 9 22 0 35 -13
19z"/>
<path d="M2307 1584 c-31 -19 -57 -38 -57 -40 0 -8 96 45 109 60 19 23 12 20
-52 -20z"/>
<path d="M757 1593 c-3 -5 -1 -17 4 -28 4 -11 8 -15 8 -8 1 6 4 18 7 27 6 16
-11 23 -19 9z"/>
<path d="M1473 1540 c-27 -33 -28 -40 -9 -40 7 0 16 9 19 20 3 11 12 20 21 20
9 0 16 7 16 15 0 24 -23 17 -47 -15z"/>
<path d="M3690 1563 c0 -4 5 -15 10 -23 8 -13 10 -13 10 2 0 9 -4 20 -10 23
-5 3 -10 3 -10 -2z"/>
<path d="M2880 1520 c6 -11 13 -20 16 -20 2 0 0 9 -6 20 -6 11 -13 20 -16 20
-2 0 0 -9 6 -20z"/>
<path d="M3235 1499 c-11 -16 -25 -29 -32 -29 -7 0 -24 -5 -38 -12 -27 -12
-29 -35 -2 -30 11 2 14 -3 10 -19 -4 -16 -2 -20 8 -17 8 2 15 15 17 27 2 12
10 25 18 28 13 5 48 72 41 79 -1 2 -11 -10 -22 -27z"/>
<path d="M1351 1411 c-20 -27 -27 -51 -16 -51 2 0 15 5 28 11 17 8 24 19 24
40 0 37 -10 37 -36 0z"/>
<path d="M2885 1417 c-17 -26 -39 -86 -34 -92 2 -2 19 23 37 56 31 56 29 85
-3 36z"/>
<path d="M2942 1403 c-26 -38 -43 -91 -31 -98 5 -4 9 2 9 13 0 11 8 30 19 43
28 36 43 69 32 69 -5 0 -18 -12 -29 -27z"/>
<path d="M3012 1398 c-26 -28 -43 -71 -33 -86 4 -6 18 15 33 48 14 33 25 60
24 60 -1 0 -12 -10 -24 -22z"/>
<path d="M2735 1390 c-3 -5 -1 -10 4 -10 6 0 11 5 11 10 0 6 -2 10 -4 10 -3 0
-8 -4 -11 -10z"/>
<path d="M1279 1309 c-34 -42 -53 -85 -43 -101 3 -4 24 -8 47 -8 23 0 48 -4
56 -9 22 -14 44 -2 30 15 -6 8 -15 11 -20 8 -5 -3 -9 2 -9 11 0 19 32 34 38
17 7 -23 30 -12 30 14 0 16 -3 21 -8 14 -5 -8 -13 -5 -25 11 l-17 24 5 -22 c3
-13 1 -23 -4 -23 -5 0 -9 4 -9 8 0 5 -9 18 -21 31 -11 12 -18 29 -15 37 9 23
1 17 -35 -27z"/>
<path d="M2930 1260 c0 -5 5 -10 10 -10 6 0 10 5 10 10 0 6 -4 10 -10 10 -5 0
-10 -4 -10 -10z"/>
<path d="M2980 1240 c-9 -6 -10 -10 -3 -10 6 0 15 5 18 10 8 12 4 12 -15 0z"/>
<path d="M1386 1194 c-8 -21 -8 -24 3 -24 12 0 22 28 12 35 -5 3 -12 -2 -15
-11z"/>
<path d="M2910 1189 c0 -5 5 -7 10 -4 6 3 10 8 10 11 0 2 -4 4 -10 4 -5 0 -10
-5 -10 -11z"/>
<path d="M2766 1155 c4 -8 16 -15 28 -16 11 0 15 -3 9 -6 -29 -11 -10 -23 37
-23 47 0 49 1 38 19 -19 30 -122 54 -112 26z"/>
<path d="M2760 1100 c-8 -5 -12 -12 -9 -15 4 -3 12 1 19 10 14 17 11 19 -10 5z"/>
<path d="M2652 1073 c-24 -8 -42 -17 -40 -19 5 -4 108 26 108 32 0 7 -24 3
-68 -13z"/>
<path d="M2718 998 c-14 -14 -15 -17 -1 -22 8 -3 19 -4 23 -1 5 3 32 7 60 9
88 7 84 26 -6 29 -44 2 -63 -2 -76 -15z"/>
<path d="M2743 937 c-50 -19 -47 -23 12 -17 61 7 101 31 50 29 -17 0 -44 -6
-62 -12z"/>
</g>
</svg>
