<?xml version="1.0" standalone="no"?>
<!DOCTYPE svg PUBLIC "-//W3C//DTD SVG 20010904//EN"
 "http://www.w3.org/TR/2001/REC-SVG-20010904/DTD/svg10.dtd">
<svg version="1.0" xmlns="http://www.w3.org/2000/svg"
 width="500.000000pt" height="707.000000pt" viewBox="0 0 500.000000 707.000000"
 preserveAspectRatio="xMidYMid meet">

<g transform="translate(0.000000,707.000000) scale(0.100000,-0.100000)"
fill="#000000" stroke="none">
<path d="M1380 5785 c-19 -13 -41 -24 -47 -24 -7 -1 -12 -7 -10 -13 1 -8 -11
-13 -31 -15 -18 0 -39 -7 -47 -13 -9 -7 -15 -8 -15 -2 0 5 -7 13 -16 16 -10 4
-13 2 -9 -7 4 -6 -3 -1 -15 12 -18 21 -23 22 -31 10 -14 -22 -6 -52 18 -65 13
-6 32 -19 43 -29 21 -19 70 -27 70 -12 0 5 7 7 15 3 8 -3 15 -1 15 4 0 12 47
13 54 1 9 -15 55 -19 99 -9 42 9 111 68 89 76 -7 2 -12 8 -12 13 0 6 7 6 19 0
11 -6 30 -7 47 -2 16 4 39 7 52 5 39 -6 24 13 -20 25 -24 7 -50 13 -58 14 -8
2 -28 10 -45 18 -50 25 -124 23 -165 -6z m159 -20 c15 -15 14 -15 -12 -6 -43
16 -44 14 -6 -20 l34 -30 -33 -30 c-18 -16 -44 -29 -58 -29 -24 0 -84 25 -84
36 0 2 9 0 19 -6 30 -15 33 -12 11 10 -26 26 -13 54 33 74 18 8 26 15 19 15
-7 1 -26 -6 -42 -14 -38 -20 -39 -11 -2 10 33 19 98 13 121 -10z m-199 -43 c0
-5 -7 -17 -15 -28 -14 -18 -14 -17 -4 9 12 27 19 34 19 19z"/>
<path d="M1460 5736 c0 -13 -5 -16 -20 -11 -15 5 -18 3 -14 -9 8 -21 43 -21
51 0 3 8 1 20 -6 27 -8 8 -11 6 -11 -7z"/>
<path d="M1509 5693 c-13 -16 -12 -17 4 -4 16 13 21 21 13 21 -2 0 -10 -8 -17
-17z"/>
<path d="M1100 5568 l-25 -10 25 -11 c23 -11 20 -12 -30 -15 -35 -2 -49 -6
-40 -12 7 -4 28 -6 47 -3 30 5 46 -8 26 -20 -5 -2 -3 -3 3 -1 6 1 17 -3 23 -9
6 -6 11 -7 11 -1 0 6 -5 15 -10 20 -7 7 3 10 30 8 22 -1 40 0 40 2 0 1 -16 11
-36 20 -22 10 -33 22 -30 30 6 16 0 17 -34 2z"/>
<path d="M1048 5553 c7 -3 16 -2 19 1 4 3 -2 6 -13 5 -11 0 -14 -3 -6 -6z"/>
<path d="M1240 5446 c0 -7 18 -29 39 -49 45 -43 57 -79 42 -134 -9 -32 -8 -35
3 -21 7 10 17 14 21 10 4 -4 5 5 1 20 -3 15 -2 30 4 33 5 3 10 15 10 26 0 10
5 19 12 19 9 0 9 3 1 11 -14 14 -5 42 10 32 7 -4 8 0 4 11 -4 10 -7 20 -7 22
0 2 -8 4 -18 4 -10 0 -41 6 -70 14 -38 9 -52 10 -52 2z"/>
<path d="M2106 5417 c9 -15 20 -27 27 -24 14 4 37 -17 37 -35 0 -8 -8 -14 -19
-14 -11 0 -17 5 -14 13 3 7 10 10 16 6 6 -4 7 -1 3 6 -5 7 -10 10 -13 7 -3 -3
-15 0 -27 6 l-21 11 20 -23 c11 -12 19 -24 18 -26 -1 -2 0 -11 4 -20 4 -12 8
-13 13 -3 6 9 16 9 42 -4 38 -18 98 -71 98 -86 0 -6 5 -11 10 -11 17 0 -5 33
-45 72 -20 18 -54 61 -77 95 -32 48 -47 62 -64 61 -21 -2 -22 -4 -8 -31z m22
-12 c-3 -3 -9 2 -12 12 -6 14 -5 15 5 6 7 -7 10 -15 7 -18z"/>
<path d="M1765 5229 c-7 -11 31 -59 47 -59 16 0 7 15 -14 25 -13 6 -22 18 -22
28 2 20 -2 22 -11 6z"/>
<path d="M1540 5201 c0 -6 4 -13 10 -16 6 -3 7 1 4 9 -7 18 -14 21 -14 7z"/>
<path d="M1890 5200 c8 -5 22 -10 30 -10 13 0 13 1 0 10 -8 5 -22 10 -30 10
-13 0 -13 -1 0 -10z"/>
<path d="M1576 5176 c3 -9 9 -16 13 -17 3 0 14 -2 23 -4 15 -3 16 0 6 18 -7
15 -13 18 -16 9 -3 -10 -7 -10 -18 -1 -12 10 -13 9 -8 -5z"/>
<path d="M1670 5186 c0 -2 8 -10 18 -17 15 -13 16 -12 3 4 -13 16 -21 21 -21
13z"/>
<path d="M1700 5186 c0 -2 8 -10 18 -17 15 -13 16 -12 3 4 -13 16 -21 21 -21
13z"/>
<path d="M2481 5174 c13 -16 12 -17 -6 -12 -23 5 -51 -17 -35 -27 6 -3 10 -11
10 -16 0 -6 -4 -7 -10 -4 -6 3 -10 -5 -10 -19 0 -18 -4 -24 -15 -20 -8 4 -15
2 -15 -4 0 -5 7 -13 16 -16 8 -3 13 -10 10 -15 -7 -10 -61 -9 -72 2 -4 4 -12
7 -17 7 -5 0 1 -9 14 -20 14 -11 18 -19 11 -20 -7 0 -10 -4 -7 -10 3 -5 2 -10
-3 -10 -11 0 -30 21 -30 33 0 5 -4 12 -8 15 -4 4 -3 1 1 -7 6 -11 4 -13 -11
-8 -10 4 -1 -9 21 -29 l40 -36 -30 7 c-49 11 -145 14 -139 4 3 -5 0 -9 -6 -9
-6 0 -8 -5 -4 -11 5 -8 1 -8 -14 0 -12 6 -24 16 -27 21 -3 6 -11 10 -18 10 -6
0 -2 -7 9 -16 19 -15 19 -16 -1 -9 -17 5 -17 3 5 -20 l24 -25 -31 15 c-34 17
-63 11 -63 -12 0 -10 -6 -13 -15 -9 -8 3 -22 9 -30 12 -8 3 -15 1 -15 -6 0 -7
-8 -10 -20 -7 -11 3 -20 1 -20 -4 0 -5 -16 0 -35 11 -20 11 -35 15 -35 9 0 -6
-6 -9 -14 -6 -9 4 -12 0 -9 -13 3 -12 -2 -20 -15 -25 -12 -3 -23 -16 -25 -28
-4 -22 -4 -22 -12 -1 -4 15 -14 20 -31 18 -13 -1 -27 3 -31 8 -4 7 -1 8 8 4 8
-4 6 -1 -4 7 -15 13 -15 15 -3 20 9 4 20 -1 25 -11 5 -9 12 -14 15 -11 4 3 -2
13 -12 23 -18 15 -20 15 -45 -4 -14 -11 -35 -20 -46 -20 -12 0 -21 -5 -21 -12
0 -6 -3 -8 -6 -5 -4 3 -15 -5 -26 -18 -25 -32 -34 -31 -46 3 -7 18 -11 21 -11
9 -1 -10 4 -28 10 -39 9 -16 8 -19 -2 -16 -8 3 -16 15 -20 29 -5 18 -7 11 -8
-23 -1 -53 3 -56 32 -30 19 17 19 16 6 -7 -11 -19 -11 -25 -1 -28 6 -3 9 -9 6
-15 -4 -6 0 -14 7 -19 9 -6 10 -9 2 -9 -7 0 -16 7 -21 16 -6 10 -12 13 -16 6
-3 -6 0 -17 8 -25 9 -9 11 -19 5 -28 -7 -11 -9 -11 -9 -1 0 7 -4 11 -9 8 -5
-3 -12 1 -15 10 -3 8 -10 12 -16 9 -15 -9 -12 14 4 31 11 10 12 22 6 45 -13
44 -23 51 -17 11 5 -29 3 -32 -14 -27 -15 5 -19 2 -19 -14 0 -12 -4 -21 -10
-21 -5 0 -10 -9 -10 -21 0 -15 -5 -19 -15 -15 -11 4 -15 -2 -15 -28 0 -18 -7
-46 -14 -62 -16 -32 -29 -257 -15 -248 5 3 9 -2 9 -10 0 -9 -5 -16 -11 -16
-11 0 -2 -41 11 -50 5 -3 13 -34 20 -70 6 -36 20 -77 30 -92 11 -15 31 -52 44
-82 14 -31 29 -56 35 -56 6 0 29 -33 52 -72 68 -118 143 -216 268 -348 23 -25
49 -53 58 -63 10 -10 23 -15 31 -12 7 2 10 1 7 -5 -3 -5 11 -25 30 -44 20 -20
33 -36 29 -36 -3 0 -1 -7 6 -15 7 -8 16 -12 21 -9 5 3 9 2 8 -3 -4 -21 2 -33
16 -33 9 0 18 -7 21 -15 4 -8 11 -12 17 -8 5 3 7 1 4 -5 -4 -5 24 -43 63 -84
38 -40 70 -66 70 -58 0 8 16 -2 40 -25 22 -21 40 -33 40 -26 0 17 57 -28 65
-52 4 -10 9 -16 11 -14 3 3 35 -24 71 -58 37 -35 72 -61 78 -59 6 3 22 -7 34
-20 13 -14 28 -23 33 -20 5 3 15 0 23 -6 8 -6 20 -8 27 -4 7 4 10 3 5 -1 -4
-5 -1 -16 7 -24 10 -11 12 -22 6 -31 -7 -12 -11 -12 -26 1 -11 9 -15 9 -10 2
10 -19 -4 -16 -28 5 l-20 17 18 -30 19 -30 -38 35 -38 35 22 -33 c26 -37 18
-42 -17 -9 l-25 22 17 -32 c20 -39 20 -40 1 -40 -8 0 -12 3 -10 7 2 3 0 12 -6
20 -7 13 -9 13 -9 1 0 -11 -5 -10 -20 4 -14 13 -20 14 -20 5 0 -9 -10 -5 -27
11 -15 13 -21 16 -14 7 17 -22 3 -23 -27 -2 -24 16 -30 7 -9 -16 9 -11 8 -11
-8 0 -27 20 -88 51 -106 53 -9 2 -28 13 -43 25 -28 21 -41 26 -60 23 -5 -1
-17 6 -27 15 -11 9 -19 13 -19 8 -1 -5 -16 9 -35 31 -30 35 -34 37 -28 15 l5
-25 -26 28 c-32 33 -35 33 -30 5 2 -13 1 -16 -2 -8 -9 20 -41 50 -53 50 -5 0
-22 14 -38 30 -15 17 -32 30 -37 30 -9 0 -107 91 -165 152 -14 16 -45 48 -68
73 -24 25 -43 51 -43 58 0 6 -8 21 -17 32 -15 20 -15 20 -10 -2 3 -13 3 -23 1
-23 -2 0 -13 10 -25 23 -12 12 -19 15 -15 7 4 -8 -4 -2 -18 13 -14 15 -26 34
-26 42 0 7 -5 26 -12 42 -6 15 -12 30 -13 33 -2 12 -30 50 -36 50 -4 0 -5 -9
-2 -20 3 -11 0 -20 -6 -20 -5 0 -8 -6 -5 -14 3 -7 -2 -20 -10 -29 -17 -16 -15
-84 5 -182 6 -27 12 -57 13 -67 3 -13 -3 -16 -33 -13 -20 2 -30 1 -23 -1 6 -3
12 -17 12 -31 0 -22 -2 -24 -15 -13 -13 11 -14 10 -9 -4 5 -12 2 -15 -12 -9
-12 4 -15 3 -10 -5 4 -7 16 -12 26 -12 10 0 22 -5 26 -12 5 -8 1 -9 -12 -5
-18 7 -18 7 0 -8 11 -8 28 -15 39 -15 15 0 18 -5 15 -25 -4 -17 -1 -25 8 -25
8 0 14 -9 14 -21 0 -12 12 -30 26 -41 20 -16 23 -23 12 -29 -7 -5 -8 -9 -2 -9
7 0 11 -23 10 -60 -1 -47 2 -59 13 -55 9 3 11 0 7 -10 -3 -8 0 -15 7 -15 8 0
7 -4 -3 -10 -13 -8 -11 -11 8 -16 26 -8 27 -13 4 -39 -9 -11 -16 -18 -15 -16
2 2 -11 13 -28 23 -22 13 -28 23 -21 30 5 5 7 19 5 29 -5 17 -9 13 -24 -21
-10 -22 -25 -43 -34 -46 -10 -4 -14 -13 -10 -23 14 -37 14 -79 0 -91 -8 -7
-15 -23 -15 -37 0 -13 -5 -34 -11 -45 -10 -18 -9 -20 5 -15 10 4 16 1 16 -9 0
-13 -4 -12 -31 1 -34 18 -49 14 -31 -8 7 -8 9 -17 5 -21 -4 -3 2 -13 13 -21
16 -13 17 -16 4 -25 -13 -8 -12 -10 3 -10 10 0 16 -4 13 -9 -4 -5 -1 -22 5
-37 8 -22 12 -25 19 -14 5 8 12 12 15 8 10 -10 -18 -47 -38 -50 -15 -2 -9 -11
28 -38 26 -19 54 -34 64 -33 11 2 12 1 2 -4 -11 -4 -8 -10 10 -24 17 -13 20
-19 8 -19 -18 0 -98 50 -118 73 -7 9 -20 17 -28 17 -8 0 -27 9 -43 20 -15 11
-30 16 -34 12 -4 -4 -13 0 -19 8 -7 8 -21 17 -32 19 -20 3 -20 3 -1 -18 25
-27 18 -26 -35 3 -47 26 -105 36 -128 22 -11 -7 -9 -12 10 -23 18 -11 19 -13
4 -8 -55 17 -119 26 -143 20 -25 -7 -26 -8 -7 -16 14 -7 10 -8 -16 -4 -42 6
-121 -30 -151 -68 -21 -26 -23 -41 -5 -31 7 4 9 3 4 -2 -5 -5 -13 -9 -19 -9
-6 0 -18 -11 -27 -25 -9 -13 -11 -21 -5 -17 6 3 31 9 55 13 24 3 58 8 74 10
17 3 69 6 116 8 47 2 120 9 162 16 42 6 86 9 96 5 11 -3 22 -1 26 5 11 18 80
11 136 -16 121 -57 145 -69 161 -87 16 -17 18 -17 42 -2 29 19 35 38 9 28 -12
-5 -9 3 10 29 15 19 27 45 27 56 0 15 6 22 19 22 11 0 21 -4 23 -9 2 -5 13 -5
26 0 19 7 22 15 22 65 0 31 11 99 25 152 27 99 29 104 52 131 7 9 26 32 42 50
28 34 29 34 36 12 l7 -22 20 23 c11 13 30 35 42 49 13 15 46 44 75 64 43 31
62 38 115 42 l64 6 21 -40 c20 -40 20 -41 1 -78 -15 -29 -17 -42 -9 -52 9 -10
8 -13 -1 -13 -9 0 -10 -3 -1 -14 15 -18 4 -46 -16 -39 -12 5 -14 1 -8 -15 4
-15 2 -22 -7 -23 -7 -1 -20 -2 -28 -3 -8 -1 -21 3 -29 9 -10 7 -13 7 -9 0 4
-6 -6 -16 -22 -23 -17 -8 -30 -23 -33 -37 -3 -20 -2 -23 9 -14 8 6 14 8 14 3
0 -5 7 2 16 14 8 12 21 22 27 22 7 0 4 -7 -5 -14 -24 -18 -24 -41 0 -26 54 33
125 71 127 68 7 -7 -126 -99 -134 -94 -5 4 -7 -3 -4 -13 3 -11 12 -22 21 -26
15 -5 73 28 119 69 13 11 26 16 30 12 5 -4 1 -13 -7 -19 -8 -7 -33 -34 -55
-62 -22 -27 -49 -61 -61 -74 -12 -13 -20 -30 -17 -38 3 -8 2 -18 -3 -22 -5 -3
-24 -26 -42 -50 -29 -41 -30 -45 -14 -57 16 -13 15 -14 -5 -20 -13 -3 -23 -11
-23 -16 0 -5 9 -6 21 -3 14 5 20 3 18 -7 -3 -26 1 -39 11 -33 17 11 11 -9 -15
-47 -14 -20 -25 -42 -25 -48 0 -6 -19 -31 -41 -55 -23 -25 -40 -48 -37 -50 12
-12 68 -17 68 -6 0 9 5 9 21 0 16 -8 18 -13 9 -19 -7 -4 -10 -15 -7 -24 8 -21
-2 -20 -20 2 -14 16 -14 16 -9 0 3 -10 1 -18 -5 -18 -5 0 -7 -11 -3 -26 6 -24
5 -25 -11 -16 -21 11 -48 -8 -50 -38 -1 -10 -9 -29 -18 -43 -15 -23 -15 -26
-2 -20 27 10 -19 -57 -80 -116 -30 -30 -55 -61 -55 -70 0 -12 3 -12 12 -3 17
17 26 15 30 -5 2 -10 -3 -24 -12 -31 -13 -11 -13 -12 0 -6 10 5 9 0 -4 -14
-11 -12 -24 -31 -30 -41 -6 -10 -28 -44 -49 -75 -21 -30 -37 -63 -35 -73 3
-16 5 -16 23 5 24 27 31 28 38 2 3 -10 2 -19 -2 -18 -20 2 -30 -4 -25 -17 4
-9 0 -15 -10 -15 -21 0 -21 -16 0 -24 26 -10 34 -7 35 12 0 10 3 12 6 5 2 -7
15 -13 27 -13 24 0 56 45 56 78 0 26 25 52 59 58 25 5 81 69 81 93 0 6 5 11
10 11 6 0 10 6 10 13 0 6 16 30 36 52 19 22 46 63 59 92 13 28 33 58 45 66 14
10 22 26 22 48 1 25 12 45 39 74 21 22 34 41 29 43 -12 4 -13 22 -2 22 12 0
82 -68 82 -79 0 -5 -22 -24 -50 -42 -27 -19 -54 -46 -59 -60 -5 -15 -20 -37
-33 -49 -16 -15 -19 -24 -10 -27 6 -3 12 -18 12 -34 0 -19 5 -29 15 -29 16 0
49 56 41 69 -3 5 4 11 17 15 32 9 39 7 31 -6 -5 -8 0 -9 17 -4 13 5 39 10 57
13 39 6 50 19 22 28 -26 8 -21 30 8 31 23 1 91 -58 73 -64 -20 -7 -11 -51 17
-83 21 -24 37 -32 60 -31 18 0 32 -3 32 -7 0 -22 186 -158 242 -177 10 -3 20
-14 23 -25 7 -22 89 -83 139 -104 40 -17 49 -18 43 -7 -3 4 9 8 25 9 36 3 36
3 41 29 2 10 7 27 12 37 5 12 0 24 -16 38 -22 19 -23 21 -6 33 15 12 12 17
-36 53 -41 30 -52 45 -52 66 1 15 -2 27 -5 27 -3 0 -6 9 -6 20 0 12 7 20 17
20 28 0 49 11 49 26 0 8 6 11 15 7 10 -3 15 0 13 8 -2 8 5 14 17 14 39 0 51
21 32 52 -5 7 -5 14 0 14 30 4 40 2 55 -14 24 -23 45 -22 85 5 27 19 32 28 28
47 -5 20 -3 23 13 19 12 -3 26 2 36 13 9 11 23 19 32 19 11 0 14 5 10 16 -6
16 -5 16 39 -2 6 -3 11 5 11 16 0 11 -5 20 -12 20 -6 0 -18 8 -28 18 -15 18
-15 20 11 38 55 38 103 94 104 122 0 15 3 21 6 14 2 -6 9 -10 14 -6 5 3 12 -3
16 -13 4 -10 39 -65 78 -123 40 -58 75 -113 78 -123 4 -11 12 -15 18 -11 8 4
9 3 5 -4 -9 -14 -2 -27 92 -177 104 -167 223 -309 287 -342 73 -39 278 -47
326 -13 15 11 32 20 39 20 13 0 88 41 145 79 22 15 48 30 57 34 10 3 24 21 33
39 9 18 22 45 30 59 8 14 16 47 16 72 2 38 -5 57 -41 114 -58 93 -201 282
-280 369 -36 40 -82 92 -104 116 -21 23 -32 34 -25 24 9 -13 10 -17 2 -13 -7
4 -22 22 -34 40 l-23 32 24 -20 c19 -16 16 -10 -10 28 -19 26 -41 53 -50 60
-8 7 -2 -5 13 -25 38 -52 27 -48 -15 4 -18 23 -27 39 -20 35 20 -13 14 3 -19
45 -46 57 -90 153 -104 226 -2 11 -9 31 -15 43 -7 12 -14 36 -17 53 -2 17 -11
55 -19 85 -12 41 -18 51 -25 40 -7 -9 -8 -1 -3 25 4 22 3 37 -2 33 -5 -3 -9
20 -8 51 1 43 4 56 14 54 20 -5 304 -282 420 -409 25 -28 56 -55 68 -62 21
-11 22 -10 16 13 -4 16 -2 26 5 26 18 0 13 31 -23 152 -47 154 -67 208 -77
208 -5 0 -9 5 -9 10 0 6 -13 24 -30 41 -16 18 -27 35 -24 40 3 5 2 9 -3 9 -4
0 -20 21 -35 48 -15 26 -49 72 -76 102 -27 30 -63 82 -80 115 -16 34 -51 84
-77 113 -28 31 -41 52 -32 52 18 0 30 42 15 51 -7 4 -13 21 -14 38 -2 34 -41
121 -61 136 -20 16 -43 82 -36 102 3 10 3 15 -2 11 -10 -9 -34 21 -35 43 0 9
-9 24 -21 35 -12 10 -31 37 -42 59 -15 29 -22 35 -25 23 -2 -13 -13 -18 -38
-18 -19 0 -34 4 -34 9 0 6 12 9 27 8 31 -2 45 29 21 47 -7 6 -20 31 -27 56 -7
25 -29 67 -49 95 -19 27 -35 55 -35 62 0 12 -11 9 -37 -12 -10 -8 -25 -9 -47
-3 -38 10 -45 28 -9 21 39 -8 42 24 6 71 -17 23 -40 56 -51 73 -17 27 -25 32
-46 26 -17 -4 -24 -2 -20 4 4 6 -1 17 -10 24 -14 12 -16 12 -8 0 5 -9 4 -12
-3 -7 -6 4 -9 13 -6 20 6 15 -63 96 -82 96 -7 0 -14 7 -17 14 -4 10 -1 13 9 9
29 -11 12 14 -60 89 -41 42 -77 85 -81 95 -3 10 -47 54 -97 98 -49 44 -95 85
-102 91 -20 19 -73 44 -80 37 -3 -3 -11 7 -16 24 -6 17 -24 37 -43 46 -58 30
-132 72 -156 89 -13 9 -28 15 -32 12 -12 -7 -51 15 -44 25 2 5 -11 20 -29 35
-24 18 -36 22 -39 13 -3 -7 -6 -4 -6 6 -1 18 -75 58 -135 72 -27 6 -28 5 -15
-11z m109 -143 c30 -30 50 -52 44 -48 -7 4 -14 0 -18 -8 -3 -8 -2 -14 2 -14 4
1 14 1 22 0 13 -1 13 -3 1 -10 -10 -6 -25 -4 -45 6 l-31 16 20 -23 20 -22 -31
18 c-24 13 -29 21 -20 30 7 8 17 9 29 3 9 -6 17 -7 17 -5 0 3 -19 15 -42 27
-40 21 -77 49 -62 49 3 0 0 8 -7 18 -7 9 0 6 16 -9 44 -37 75 -56 45 -27 -14
13 -36 39 -48 57 l-24 33 29 -18 c15 -10 53 -43 83 -73z m-20 64 c13 -14 19
-25 13 -25 -5 0 -20 11 -33 25 -13 14 -19 25 -13 25 5 0 20 -11 33 -25z m-86
-61 c5 -14 4 -15 -9 -4 -17 14 -19 20 -6 20 5 0 12 -7 15 -16z m281 -14 c3 -5
1 -10 -4 -10 -6 0 -11 5 -11 10 0 6 2 10 4 10 3 0 8 -4 11 -10z m-65 -15 c20
-24 6 -28 -15 -5 -10 11 -13 20 -8 20 6 0 16 -7 23 -15z m-214 -16 c8 -14 24
-10 24 6 0 17 16 20 25 5 11 -18 -40 -34 -65 -20 -12 7 -20 8 -17 3 3 -4 -1
-13 -7 -19 -10 -9 -16 -7 -24 7 -10 15 -9 19 3 19 8 0 15 4 15 9 0 11 38 2 46
-10z m225 -36 c13 -16 12 -17 -3 -4 -17 13 -22 21 -14 21 2 0 10 -8 17 -17z
m-401 -13 c8 -5 11 -12 7 -16 -4 -4 -15 0 -24 9 -18 18 -8 23 17 7z m105 0 c3
-6 -1 -7 -9 -4 -18 7 -21 14 -7 14 6 0 13 -4 16 -10z m55 -5 c0 -8 8 -15 18
-16 11 0 12 -2 4 -6 -14 -5 -42 14 -42 28 0 5 5 9 10 9 6 0 10 -7 10 -15z
m-390 -65 c0 -5 -2 -10 -4 -10 -3 0 -8 5 -11 10 -3 6 -1 10 4 10 6 0 11 -4 11
-10z m575 0 c3 -6 -1 -7 -9 -4 -18 7 -21 14 -7 14 6 0 13 -4 16 -10z m150 -21
c14 -22 -6 -21 -25 1 -11 13 -20 25 -20 27 0 7 39 -17 45 -28z m-380 1 c3 -6
-1 -7 -9 -4 -18 7 -21 14 -7 14 6 0 13 -4 16 -10z m185 0 c0 -5 -5 -10 -11
-10 -5 0 -7 5 -4 10 3 6 8 10 11 10 2 0 4 -4 4 -10z m-564 -32 c5 -7 3 -8 -6
-3 -10 6 -12 4 -7 -8 6 -16 -9 -34 -19 -24 -6 5 13 47 21 47 2 0 7 -5 11 -12z
m45 -85 c13 -16 12 -17 -3 -4 -10 7 -18 15 -18 17 0 8 8 3 21 -13z m1110 -45
c8 -15 8 -18 0 -14 -6 4 -16 16 -22 28 -8 15 -8 18 0 14 6 -4 16 -16 22 -28z
m-1636 -27 c4 -14 2 -27 -4 -29 -6 -2 -8 -16 -4 -33 3 -18 1 -29 -6 -29 -6 0
-11 4 -11 9 0 5 -10 11 -21 14 -21 6 -21 5 2 -21 13 -15 27 -28 32 -30 4 -2 7
-10 7 -18 0 -9 5 -12 10 -9 6 3 11 -2 11 -12 1 -10 3 -36 5 -58 10 -105 11
-100 -13 -99 -35 1 -27 -11 16 -26 22 -7 43 -20 46 -28 9 -24 -3 -27 -27 -6
l-23 19 19 -22 c11 -13 25 -23 33 -23 17 0 18 -66 1 -73 -8 -4 -4 -8 10 -13
14 -4 31 -24 44 -51 11 -24 23 -41 26 -39 2 3 13 -6 24 -19 11 -14 23 -23 27
-21 12 8 27 -7 61 -59 17 -27 29 -40 25 -27 -4 13 -2 22 4 22 6 0 11 -5 11
-11 0 -21 54 -99 68 -99 10 0 8 10 -7 36 -35 59 -16 51 25 -10 20 -31 41 -56
45 -56 13 0 11 18 -3 22 -9 3 -9 6 0 12 13 8 26 -6 74 -79 18 -27 49 -58 68
-69 l35 -19 -31 34 c-37 40 -69 99 -54 99 5 0 10 -4 10 -10 0 -17 120 -137
148 -148 15 -6 60 -20 100 -32 58 -17 71 -25 62 -35 -7 -8 -7 -16 -2 -19 6 -3
12 1 16 9 6 17 66 21 66 5 0 -5 3 -9 8 -8 4 1 22 -3 41 -10 31 -11 33 -14 27
-43 -5 -26 -4 -30 8 -20 11 9 16 9 22 0 4 -7 2 -15 -4 -17 -17 -5 -5 -22 16
-22 20 -1 128 -98 124 -112 -1 -5 2 -7 7 -3 6 3 16 -3 23 -15 7 -11 16 -20 20
-20 4 0 22 -9 40 -21 l33 -21 -36 5 c-45 6 -116 53 -208 136 -39 34 -71 59
-71 54 0 -19 117 -128 168 -158 28 -16 52 -33 52 -37 0 -16 -87 -19 -123 -4
-21 8 -44 13 -51 10 -8 -3 -39 6 -69 20 -29 14 -62 26 -71 26 -10 0 -25 4 -35
9 -9 5 -35 12 -57 14 -50 6 -99 24 -148 55 -22 13 -56 31 -75 39 -121 51 -291
222 -377 379 -6 11 -34 56 -62 100 -28 44 -63 111 -77 149 -15 38 -39 83 -55
101 -15 18 -46 69 -69 114 -36 72 -41 91 -41 149 0 93 37 210 62 195 7 -5 9
-2 5 8 -7 20 0 27 23 25 11 -1 22 -12 25 -26z m646 -28 c13 -15 12 -15 -8 -4
-24 12 -29 21 -14 21 5 0 15 -7 22 -17z m-20 -20 c13 -15 19 -23 12 -20 -6 4
-13 2 -15 -4 -4 -11 -58 26 -58 40 0 17 40 7 61 -16z m-75 -25 l29 -33 -32 29
c-18 17 -33 31 -33 33 0 8 8 1 36 -29z m39 1 c14 -22 -3 -18 -26 7 -23 25 -23
26 -2 15 12 -6 25 -16 28 -22z m-535 17 c0 -3 -4 -8 -10 -11 -5 -3 -10 -1 -10
4 0 6 5 11 10 11 6 0 10 -2 10 -4z m1604 -8 c-3 -4 -11 -5 -19 -1 -21 7 -19
12 4 10 11 0 18 -5 15 -9z m113 -56 l33 -44 -21 -30 c-22 -31 -45 -45 -56 -34
-4 3 2 13 13 21 15 12 16 14 3 15 -8 0 -25 18 -36 39 -18 34 -19 39 -5 35 15
-5 15 -4 0 9 -27 21 -22 39 9 35 18 -2 38 -17 60 -46z m-1196 -34 c8 -15 8
-18 0 -14 -6 4 -16 16 -22 28 -8 15 -8 18 0 14 6 -4 16 -16 22 -28z m123 12
c7 -7 6 -10 -3 -10 -7 0 -9 -5 -5 -12 5 -8 -2 -7 -16 3 -32 21 -37 39 -9 34
12 -3 27 -9 33 -15z m-74 -33 c0 -6 -9 -1 -20 11 -11 12 -20 24 -20 28 0 4 9
-1 20 -11 11 -10 20 -23 20 -28z m11 26 c13 -16 12 -17 -3 -4 -10 7 -18 15
-18 17 0 8 8 3 21 -13z m-203 -18 c-3 -3 -9 2 -12 12 -6 14 -5 15 5 6 7 -7 10
-15 7 -18z m-374 8 c-5 -5 -12 -12 -15 -16 -3 -5 -9 -2 -12 7 -5 12 0 16 15
16 12 0 17 -3 12 -7z m436 -14 c0 -6 -4 -7 -10 -4 -5 3 -10 11 -10 16 0 6 5 7
10 4 6 -3 10 -11 10 -16z m1106 0 c10 -12 44 -39 76 -60 110 -75 258 -223 298
-298 7 -13 38 -56 69 -95 32 -39 63 -87 71 -106 7 -19 31 -56 53 -82 21 -27
36 -48 33 -48 -9 0 43 -92 74 -132 33 -41 37 -50 17 -42 -8 3 0 -23 19 -63 18
-37 36 -84 39 -103 4 -19 15 -56 26 -82 21 -52 23 -62 11 -54 -5 3 -6 -15 -2
-39 5 -34 3 -45 -8 -50 -7 -3 -18 -3 -23 1 -5 3 -9 0 -9 -7 0 -8 -4 -8 -15 1
-13 11 -13 15 -3 21 10 6 7 13 -10 29 -13 13 -27 18 -35 13 -6 -4 -20 -8 -30
-8 -10 0 -21 -5 -25 -11 -4 -6 -19 3 -37 24 -22 26 -25 33 -10 25 22 -11 105
-6 105 7 0 8 -74 137 -85 148 -4 4 -3 -6 1 -22 5 -22 4 -27 -6 -21 -9 5 -11 4
-6 -4 4 -6 12 -9 17 -6 9 6 34 -44 26 -52 -8 -7 -37 9 -37 21 0 6 -11 25 -25
41 l-25 30 12 -30 c6 -16 15 -34 20 -40 11 -12 10 -48 -1 -41 -5 3 -14 -1 -21
-9 -14 -17 -40 -20 -40 -5 0 6 11 16 25 22 30 13 30 17 8 57 -17 29 -33 40
-33 23 0 -12 -82 -14 -100 -2 -12 8 -9 10 13 10 15 0 27 4 27 9 0 5 8 8 18 7
20 -1 18 25 -4 59 -11 17 -22 21 -44 19 -17 -2 -30 1 -30 7 0 6 5 7 10 4 6 -3
10 -1 10 4 0 6 9 11 20 11 11 0 20 2 20 3 0 11 -33 68 -42 73 -7 4 -8 2 -4 -4
5 -8 -2 -12 -18 -12 -18 0 -26 -6 -27 -17 -1 -16 -2 -16 -6 -1 -2 9 -17 22
-34 28 -43 18 -44 28 -1 23 l37 -5 -27 26 c-15 14 -33 26 -40 26 -7 1 -29 9
-48 20 l-35 19 38 1 c35 0 38 2 32 23 -4 12 -13 28 -21 36 -11 13 -14 12 -20
-2 -3 -9 -15 -17 -27 -17 -19 0 -19 1 -3 19 17 19 17 20 -3 33 -29 18 -26 32
4 24 31 -8 31 -5 3 20 -12 10 -18 13 -14 7 4 -7 4 -13 -1 -13 -4 0 -18 17 -31
38 -39 65 -46 76 -73 112 -39 53 -47 71 -54 127 -11 99 -77 263 -106 263 -6 0
-8 4 -4 9 3 5 1 12 -5 16 -16 10 -12 25 7 25 9 0 14 3 10 6 -7 8 14 33 29 34
6 0 19 -10 30 -21z m-255 -106 c13 -16 12 -17 -3 -4 -17 13 -22 21 -14 21 2 0
10 -8 17 -17z m602 -100 c-7 -2 -19 -2 -25 0 -7 3 -2 5 12 5 14 0 19 -2 13 -5z
m-1915 -248 c-3 -3 -9 2 -12 12 -6 14 -5 15 5 6 7 -7 10 -15 7 -18z m53 -82
c13 -16 12 -17 -3 -4 -17 13 -22 21 -14 21 2 0 10 -8 17 -17z m34 -43 c10 -11
16 -20 13 -20 -3 0 -13 9 -23 20 -10 11 -16 20 -13 20 3 0 13 -9 23 -20z m800
11 c3 -5 1 -12 -4 -15 -5 -3 -11 1 -15 9 -6 16 9 21 19 6z m34 -31 c11 -22 10
-23 -2 -8 -8 10 -17 15 -21 11 -4 -4 -4 1 0 10 7 20 7 20 23 -13z m-165 13
c-5 -5 -12 -12 -16 -18 -4 -6 -8 -2 -8 8 0 9 7 17 17 17 9 0 12 -3 7 -7z m37
-10 c13 -16 12 -17 -3 -4 -10 7 -18 15 -18 17 0 8 8 3 21 -13z m-231 -65 c0
-5 -6 -3 -13 4 -8 7 -14 19 -14 26 0 11 4 10 14 -4 7 -10 13 -22 13 -26z m170
-23 c0 -11 -14 7 -31 40 -7 13 -3 12 10 -5 11 -14 21 -29 21 -35z m971 38 c13
-16 12 -17 -3 -4 -17 13 -22 21 -14 21 2 0 10 -8 17 -17z m-1101 -18 c14 -19
14 -19 -2 -6 -10 7 -18 18 -18 24 0 6 1 8 3 6 1 -2 9 -13 17 -24z m78 -3 c26
-54 28 -59 11 -42 -16 16 -39 54 -39 64 0 16 16 3 28 -22z m-107 -29 c-8 -15
-10 -15 -11 -2 0 17 10 32 18 25 2 -3 -1 -13 -7 -23z m862 -10 c3 -16 9 -37
13 -48 4 -11 4 -17 0 -13 -11 9 -37 100 -27 94 5 -3 11 -18 14 -33z m-833 8
c0 -6 -4 -13 -10 -16 -5 -3 -10 1 -10 9 0 9 5 16 10 16 6 0 10 -4 10 -9z m91
-86 c10 -18 9 -17 -13 3 -13 12 -28 19 -31 15 -4 -3 -7 1 -7 10 0 8 -4 17 -9
19 -4 2 -12 14 -15 28 -6 21 -2 19 28 -15 20 -22 41 -49 47 -60z m87 36 c29
-36 30 -38 7 -27 -13 6 -29 21 -35 34 -20 45 -12 43 28 -7z m-590 -6 c-3 -3
-9 2 -12 12 -6 14 -5 15 5 6 7 -7 10 -15 7 -18z m1285 5 c3 -11 1 -18 -4 -14
-5 3 -9 12 -9 20 0 20 7 17 13 -6z m-1242 -47 c13 -16 12 -17 -3 -4 -10 7 -18
15 -18 17 0 8 8 3 21 -13z m1519 2 c7 -9 8 -15 2 -15 -5 0 -12 7 -16 15 -3 8
-4 15 -2 15 2 0 9 -7 16 -15z m-740 -85 c-12 -7 -10 -12 9 -29 13 -12 31 -21
40 -21 13 0 14 -2 2 -9 -18 -12 77 -113 167 -177 66 -48 80 -64 35 -40 -53 27
-158 118 -226 194 -58 65 -66 77 -50 83 26 11 40 10 23 -1z m86 1 c-4 -5 -3
-17 1 -27 6 -16 7 -16 15 2 7 18 8 18 5 -1 -1 -12 15 -42 37 -68 21 -26 36
-50 34 -53 -6 -5 -79 74 -105 113 -15 22 -11 43 8 43 6 0 8 -4 5 -9z m373 -61
c0 -8 -7 1 -14 20 -18 46 -17 64 0 25 8 -16 14 -37 14 -45z m438 55 c0 -8 -4
-15 -9 -15 -10 0 -11 14 -1 23 9 10 10 9 10 -8z m-84 -67 c3 -21 1 -40 -4 -44
-5 -3 -7 -10 -4 -15 14 -21 -14 -7 -29 15 -11 18 -13 27 -4 32 6 4 8 3 4 -4
-3 -6 -1 -14 5 -17 7 -5 9 1 7 16 -2 13 -9 23 -16 21 -9 -1 -8 7 4 30 19 36
28 28 37 -34z m572 52 c3 -5 -3 -10 -14 -10 -12 0 -21 5 -21 10 0 6 6 10 14
10 8 0 18 -4 21 -10z m-515 -10 c0 -5 -5 -10 -11 -10 -5 0 -7 5 -4 10 3 6 8
10 11 10 2 0 4 -4 4 -10z m-362 -35 c-3 -3 -9 2 -12 12 -6 14 -5 15 5 6 7 -7
10 -15 7 -18z m-422 -22 c10 -10 25 -26 33 -36 12 -15 12 -17 0 -12 -14 6 -65
65 -56 65 2 0 13 -8 23 -17z m504 -54 c24 -64 25 -74 4 -36 -22 41 -47 114
-34 101 6 -6 19 -35 30 -65z m-74 31 c5 0 10 -7 11 -17 2 -15 1 -15 -6 2 l-10
20 0 -20 c-1 -17 -3 -17 -11 -5 -5 8 -10 22 -10 30 0 12 2 12 9 2 4 -8 12 -13
17 -12z m113 -80 c0 -13 -1 -13 -8 0 -5 8 -12 26 -15 40 l-7 25 15 -25 c9 -14
15 -32 15 -40z m21 5 c0 -5 -5 -3 -10 5 -5 8 -10 20 -10 25 0 6 5 3 10 -5 5
-8 10 -19 10 -25z m755 25 c3 -5 2 -10 -4 -10 -5 0 -13 5 -16 10 -3 6 -2 10 4
10 5 0 13 -4 16 -10z m-498 -56 c-3 -3 -12 -4 -19 -1 -8 3 -5 6 6 6 11 1 17
-2 13 -5z m-1292 -24 c10 -11 16 -20 13 -20 -3 0 -13 9 -23 20 -10 11 -16 20
-13 20 3 0 13 -9 23 -20z m-34 -17 l24 -28 -30 25 c-16 14 -32 26 -34 28 -2 1
0 2 6 2 5 0 20 -12 34 -27z m105 -41 c-4 -3 -14 2 -24 12 -16 18 -16 18 6 6
13 -6 21 -14 18 -18z m1349 18 c8 -13 -5 -13 -25 0 -13 8 -13 10 2 10 9 0 20
-4 23 -10z m480 -60 c26 -30 58 -77 72 -105 14 -27 29 -52 33 -55 16 -12 110
-149 136 -200 15 -30 45 -79 66 -108 39 -52 82 -141 74 -149 -5 -6 -36 51 -36
67 0 15 -88 130 -118 154 -16 13 -20 22 -13 29 14 14 -10 57 -81 145 -33 40
-68 94 -79 119 -10 25 -38 66 -60 92 -23 25 -46 55 -51 66 -13 25 -4 17 57
-55z m-1624 9 c35 -28 69 -56 74 -62 15 -17 -45 22 -90 58 -22 17 -49 37 -60
43 -16 9 -17 11 -4 12 9 0 45 -23 80 -51z m658 21 c11 -24 11 -24 -3 -6 -9 11
-16 24 -16 30 0 12 5 7 19 -24z m-949 0 c13 -11 21 -22 18 -25 -2 -3 -15 6
-28 20 -28 30 -22 33 10 5z m787 -23 c12 -11 26 -16 31 -13 5 3 12 -3 15 -14
4 -17 0 -16 -37 9 -23 16 -49 38 -57 48 -13 17 -13 17 6 3 11 -8 30 -23 42
-33z m-632 23 c-3 -5 -15 -10 -25 -10 -10 0 -22 5 -25 10 -4 6 7 10 25 10 18
0 29 -4 25 -10z m894 -24 c-3 -3 -11 5 -18 17 -13 21 -12 21 5 5 10 -10 16
-20 13 -22z m271 24 c0 -5 -2 -10 -4 -10 -3 0 -8 5 -11 10 -3 6 -1 10 4 10 6
0 11 -4 11 -10z m66 1 c-6 -9 -46 -22 -46 -15 0 3 10 9 23 14 29 11 29 11 23
1z m-1325 -18 c13 -16 12 -17 -3 -4 -10 7 -18 15 -18 17 0 8 8 3 21 -13z m328
-40 c33 -26 55 -50 49 -54 -7 -4 -7 -9 1 -13 6 -4 16 -4 23 0 7 5 8 3 4 -5 -6
-8 -2 -11 10 -9 12 2 18 -2 16 -11 -2 -8 3 -11 12 -8 9 4 18 2 21 -3 12 -19
-47 -1 -94 30 -51 32 -69 51 -30 30 46 -25 26 0 -35 46 -37 26 -66 50 -66 52
0 10 34 -11 89 -55z m-199 2 c-7 -8 -24 -15 -39 -14 l-26 1 25 7 c14 4 30 17
35 29 8 18 11 19 13 7 2 -9 -2 -22 -8 -30z m511 9 c9 -11 2 -9 -18 6 -18 13
-33 25 -33 27 0 8 38 -17 51 -33z m-218 -40 c45 -37 111 -80 147 -96 134 -61
127 -57 103 -57 -43 -2 -213 98 -303 178 -72 64 -36 47 53 -25z m128 30 c13
-16 12 -16 -7 -6 -11 6 -27 19 -35 28 -13 16 -12 16 7 6 11 -6 27 -19 35 -28z
m-22 -44 c69 -51 200 -120 226 -120 8 0 15 -4 15 -10 0 -16 -21 -12 -75 14
-63 29 -245 147 -265 171 -14 17 -14 18 9 6 12 -7 53 -35 90 -61z m1071 34 c0
-8 -4 -12 -10 -9 -5 3 -10 10 -10 16 0 5 5 9 10 9 6 0 10 -7 10 -16z m-842
-58 c9 -10 -8 -2 -38 18 -70 48 -76 55 -22 26 23 -13 50 -33 60 -44z m-478
-16 c36 -27 98 -73 138 -100 39 -28 72 -53 72 -55 0 -9 -97 55 -200 133 -69
52 -108 76 -112 68 -5 -7 -8 -7 -8 0 0 18 12 24 29 14 9 -5 45 -32 81 -60z
m405 17 c4 5 5 3 2 -3 -7 -11 60 -52 130 -80 l38 -14 -35 5 c-19 3 -75 30
-125 59 -107 65 -153 99 -74 56 31 -16 59 -27 64 -23z m-580 -7 c3 -6 -1 -7
-9 -4 -18 7 -21 14 -7 14 6 0 13 -4 16 -10z m754 -46 c2 -2 -2 -4 -10 -4 -8 0
-25 10 -39 21 l-25 20 35 -17 c19 -9 37 -18 39 -20z m-584 -28 c89 -63 178
-121 245 -158 93 -52 322 -159 315 -147 -4 5 -27 20 -53 33 -61 31 -264 154
-277 168 -11 12 51 -21 265 -139 190 -106 273 -153 338 -191 29 -18 58 -32 64
-32 6 0 63 -28 127 -61 115 -61 132 -66 56 -15 -52 34 -35 34 24 -1 48 -28
161 -111 161 -119 0 -2 -27 14 -60 37 -33 22 -64 38 -70 34 -5 -3 -49 14 -97
39 -48 26 -92 46 -99 46 -6 0 -17 6 -23 14 -7 8 -24 17 -39 21 -24 6 -122 51
-480 221 -62 30 -145 73 -185 95 -66 39 -269 178 -292 201 -16 17 26 -8 80
-46z m-42 -26 c42 -27 79 -55 83 -61 8 -13 -28 9 -111 68 -80 58 -65 54 28 -7z
m327 14 c0 -2 -9 0 -20 6 -11 6 -20 13 -20 16 0 2 9 0 20 -6 11 -6 20 -13 20
-16z m395 16 l30 -8 -30 0 c-16 0 -39 3 -50 8 l-20 9 20 -1 c11 0 34 -4 50 -8z
m-333 -105 c75 -49 191 -121 257 -158 135 -78 192 -118 86 -61 -167 90 -504
301 -505 317 0 10 -7 14 162 -98z m185 69 c-3 -3 -12 -4 -19 -1 -8 3 -5 6 6 6
11 1 17 -2 13 -5z m153 -55 c34 -30 34 -30 5 -13 -57 33 -71 44 -54 44 8 0 30
-14 49 -31z m-30 -130 c113 -75 216 -142 230 -149 21 -11 149 -93 216 -138 82
-55 -151 81 -329 192 -226 141 -346 224 -347 239 0 10 -16 20 230 -144z m-11
94 c47 -32 113 -78 145 -103 33 -25 78 -58 100 -74 23 -15 33 -26 24 -22 -10
3 -52 29 -94 58 -42 29 -105 71 -140 93 -70 45 -144 104 -130 104 5 1 48 -25
95 -56z m-507 -15 c69 -45 384 -205 503 -257 39 -16 124 -51 190 -77 66 -25
124 -50 130 -56 15 -14 -302 104 -370 137 -16 9 -33 15 -38 15 -13 0 -240 118
-332 174 -49 30 -107 64 -127 76 -37 20 -47 30 -30 30 4 0 37 -19 74 -42z
m-117 -8 c3 -6 -1 -7 -9 -4 -18 7 -21 14 -7 14 6 0 13 -4 16 -10z m-455 -44
c0 -6 -5 -3 -11 7 -6 9 -15 14 -21 11 -7 -4 -8 -2 -4 5 9 14 36 -3 36 -23z
m-74 -8 c5 -8 2 -9 -9 -5 -10 4 -20 0 -26 -11 -7 -11 -11 -12 -11 -4 0 7 -4
11 -9 8 -5 -3 -7 -16 -5 -29 2 -12 2 -16 -2 -9 -3 6 -12 12 -21 12 -10 0 -13
-6 -8 -22 3 -13 3 -18 -2 -12 -4 6 -14 13 -22 16 -9 2 4 16 34 36 52 34 70 39
81 20z m1507 -64 c1 -21 -6 -41 -17 -52 -18 -16 -18 -16 -6 7 7 14 10 43 7 69
-4 34 -2 41 5 28 6 -10 10 -33 11 -52z m402 36 c21 -41 19 -51 -5 -15 -11 17
-20 33 -20 38 0 15 10 6 25 -23z m-2069 -89 c-9 -10 -16 -23 -16 -29 0 -7 -4
-12 -10 -12 -20 0 -1 56 24 72 18 12 19 -12 2 -31z m2153 -12 c1 8 3 12 6 9 3
-3 1 -17 -4 -32 -8 -19 -7 -25 2 -23 8 1 12 -12 12 -36 0 -45 -10 -56 -24 -28
-6 11 -19 22 -28 25 -19 6 -43 49 -43 75 1 11 9 7 27 -14 22 -26 25 -26 19 -7
-5 14 -3 29 5 38 12 14 14 14 20 -3 5 -11 8 -13 8 -4z m-171 -148 c24 -34 41
-65 38 -68 -8 -8 -37 17 -31 27 2 4 -4 15 -15 25 -11 10 -20 22 -20 28 0 5 -8
21 -19 35 -10 15 -21 38 -25 52 -6 22 -5 21 11 -5 10 -17 38 -59 61 -94z
m-468 73 c0 -2 -9 0 -20 6 -11 6 -20 13 -20 16 0 2 9 0 20 -6 11 -6 20 -13 20
-16z m673 -46 c-9 -21 -10 -20 -11 11 0 25 2 31 10 23 8 -8 8 -18 1 -34z
m-938 18 c-7 19 -6 19 9 0 18 -22 21 -40 6 -31 -5 3 -10 1 -10 -4 0 -23 -19
-9 -29 21 -11 31 -11 31 9 13 20 -18 21 -18 15 1z m390 -45 c-5 -4 -95 48 -95
54 0 3 22 -7 49 -22 27 -16 48 -30 46 -32z m-280 8 c22 -14 50 -29 62 -33 22
-7 54 -47 63 -79 3 -10 10 -18 15 -18 16 0 46 -31 42 -43 -2 -6 0 -15 5 -21 5
-5 16 -19 24 -30 15 -20 15 -20 10 3 -6 28 -5 27 27 -19 14 -20 30 -54 37 -75
7 -22 21 -55 30 -74 10 -19 21 -46 25 -60 7 -24 6 -24 -7 -5 -8 11 -30 54 -48
95 -19 41 -40 84 -48 95 -12 18 -13 18 -6 -10 10 -42 97 -226 128 -272 14 -21
26 -46 26 -56 0 -10 7 -20 15 -23 8 -4 12 -10 9 -16 -7 -11 15 -68 27 -68 5 0
9 -6 9 -14 0 -8 9 -21 20 -29 20 -14 60 -81 60 -101 0 -20 -88 110 -168 249
-37 64 -132 260 -132 272 0 2 -6 3 -14 3 -10 0 -7 -12 9 -47 13 -27 26 -58 30
-71 l7 -23 -28 23 c-15 13 -31 28 -35 33 -5 6 -22 26 -39 46 -16 20 -30 40
-30 45 0 5 -28 38 -62 73 -35 36 -51 55 -37 43 45 -39 43 -23 -3 26 -25 27
-49 58 -52 70 -4 12 -11 22 -16 22 -5 0 -15 10 -21 23 l-12 22 23 -20 c23 -20
20 -6 -5 25 -16 19 -8 83 9 73 6 -4 29 -19 51 -34z m730 -25 c9 -15 12 -23 6
-20 -11 7 -35 46 -28 46 3 0 12 -12 22 -26z m-24 -16 c11 -21 11 -22 -4 -9
-10 7 -17 17 -17 22 0 15 9 10 21 -13z m-366 2 c3 -6 -1 -7 -9 -4 -18 7 -21
14 -7 14 6 0 13 -4 16 -10z m-2085 -20 c0 -5 -4 -10 -10 -10 -5 0 -10 5 -10
10 0 6 5 10 10 10 6 0 10 -4 10 -10z m1679 -49 c-2 -6 -10 2 -17 17 -11 25
-11 25 4 10 9 -9 15 -21 13 -27z m801 29 c0 -5 -2 -10 -4 -10 -3 0 -8 5 -11
10 -3 6 -1 10 4 10 6 0 11 -4 11 -10z m-27 -15 c4 0 7 -4 8 -10 1 -15 41 -55
50 -50 4 3 11 0 15 -6 4 -8 3 -9 -4 -5 -18 11 -14 1 17 -46 16 -24 32 -57 36
-73 4 -19 -5 -8 -24 30 -32 61 -131 179 -131 155 0 -7 -3 -11 -6 -7 -10 10 7
28 19 20 7 -4 15 -8 20 -8z m152 -122 c-3 -14 -2 -30 3 -36 12 -15 23 -47 17
-47 -3 0 -14 15 -25 33 -21 34 -27 73 -10 62 6 -3 7 1 4 9 -3 9 -11 16 -18 16
-6 0 -4 5 4 10 20 12 34 -13 25 -47z m-320 7 c3 -6 14 -10 24 -10 10 0 26 -8
35 -19 15 -17 15 -20 1 -34 -8 -9 -11 -18 -6 -21 5 -3 11 0 14 8 9 24 46 8
130 -55 42 -33 81 -59 85 -59 5 0 18 -10 29 -22 30 -34 118 -162 105 -154 -7
4 -35 40 -64 81 -52 75 -63 85 -70 64 -3 -9 -10 -8 -28 1 -21 10 -23 10 -12
-1 26 -28 10 -31 -20 -3 l-31 29 22 -32 c31 -45 16 -41 -26 7 -19 21 -43 42
-54 45 -11 4 -17 11 -14 16 4 5 -1 9 -10 9 -9 0 -14 4 -11 9 3 5 -1 12 -9 15
-8 3 -14 11 -13 18 2 7 -2 12 -9 13 -13 0 -53 40 -53 53 0 4 -15 23 -32 42
-24 24 -27 30 -11 22 12 -7 25 -17 28 -22z m356 -42 c34 -88 33 -105 -3 -30
-12 26 -24 50 -26 55 -2 4 1 7 6 7 6 0 16 -15 23 -32z m-196 -34 c22 -20 33
-32 24 -27 -9 4 -36 25 -60 47 -24 21 -35 33 -24 27 11 -6 38 -27 60 -47z
m-2835 -15 c52 -27 14 -22 -50 7 -46 20 -49 24 -20 18 19 -3 51 -15 70 -25z
m2501 -82 c23 -45 36 -77 31 -72 -16 15 -93 167 -81 160 5 -4 28 -43 50 -88z
m-2550 43 c19 -8 13 -9 -29 -4 -79 9 -122 25 -51 19 30 -2 66 -9 80 -15z
m3026 -12 c-3 -7 -5 -2 -5 12 0 14 2 19 5 13 2 -7 2 -19 0 -25z m-2660 6 c-3
-3 -12 -4 -19 -1 -8 3 -5 6 6 6 11 1 17 -2 13 -5z m218 -17 c4 5 2 -2 -4 -15
-7 -12 -16 -20 -21 -17 -6 4 -7 -1 -3 -11 4 -11 2 -15 -4 -11 -6 4 -13 15 -16
26 -3 15 -1 18 12 14 13 -5 14 -3 4 8 -20 21 -15 34 5 16 10 -10 22 -14 27
-10z m2535 -2 c14 -19 14 -19 -2 -6 -10 7 -18 18 -18 24 0 6 1 8 3 6 1 -2 9
-13 17 -24z m-199 -102 c13 -16 12 -17 -3 -4 -17 13 -22 21 -14 21 2 0 10 -8
17 -17z m-315 -128 c60 -104 123 -221 104 -195 -33 47 -180 298 -180 308 0 13
20 -17 76 -113z m-996 45 c0 -11 -7 -20 -15 -20 -18 0 -19 12 -3 28 16 16 18
15 18 -8z m-510 -6 c0 -8 -5 -12 -10 -9 -6 4 -8 11 -5 16 9 14 15 11 15 -7z
m490 -60 c0 -19 -16 -10 -31 17 -10 19 -9 20 10 9 12 -6 21 -18 21 -26z m-450
-19 c-12 -15 -30 -12 -30 5 0 8 31 19 39 13 2 -1 -2 -9 -9 -18z m2060 -29 c0
-12 -5 -7 -19 24 -11 24 -11 24 3 6 9 -11 16 -24 16 -30z m-1694 -13 c-10 -10
-19 5 -10 18 6 11 8 11 12 0 2 -7 1 -15 -2 -18z m-413 11 c11 -11 -3 -24 -18
-18 -8 4 -12 10 -9 15 6 11 18 12 27 3z m2158 -79 l10 -20 -16 20 c-9 11 -21
29 -26 40 l-10 20 16 -20 c9 -11 21 -29 26 -40z m-477 -41 c3 -8 2 -12 -4 -9
-6 3 -10 10 -10 16 0 14 7 11 14 -7z m-1764 -38 c0 -3 -4 -8 -10 -11 -5 -3
-10 -1 -10 4 0 6 5 11 10 11 6 0 10 -2 10 -4z m700 -26 c-8 -15 -8 -20 1 -20
7 0 18 -8 25 -17 11 -16 13 -16 24 9 14 30 36 43 46 27 3 -5 12 -46 20 -91 8
-45 21 -86 29 -92 10 -8 12 -15 5 -26 -8 -13 -10 -13 -10 1 0 15 -48 66 -142
150 -49 43 -51 79 -6 79 16 0 17 -3 8 -20z m-342 -65 c1 -25 -2 -45 -8 -45 -5
0 -10 8 -10 19 0 14 -6 18 -25 16 -41 -5 -41 20 0 43 34 19 42 14 43 -33z
m-266 -87 c-7 -7 -12 -8 -12 -2 0 6 3 14 7 17 3 4 9 5 12 2 2 -3 -1 -11 -7
-17z m903 -8 c-3 -5 -1 -10 4 -10 6 0 11 -4 11 -9 0 -5 -9 -7 -20 -4 -13 3
-20 0 -20 -8 0 -9 -3 -10 -10 -3 -15 15 -1 44 22 44 10 0 16 -4 13 -10z
m-1105 -40 c0 -5 -4 -10 -9 -10 -6 0 -13 5 -16 10 -3 6 1 10 9 10 9 0 16 -4
16 -10z m1150 -294 c-7 -7 -14 -6 -21 1 -9 9 -7 12 9 10 14 -1 18 -5 12 -11z"/>
<path d="M1522 4521 c5 -19 48 -48 48 -32 0 6 -5 11 -11 11 -7 0 -18 8 -26 18
-9 11 -13 12 -11 3z"/>
<path d="M1530 4431 c0 -6 4 -13 10 -16 6 -3 7 1 4 9 -7 18 -14 21 -14 7z"/>
<path d="M1775 4020 c3 -5 8 -10 11 -10 2 0 4 5 4 10 0 6 -5 10 -11 10 -5 0
-7 -4 -4 -10z"/>
<path d="M1960 3831 c0 -6 4 -13 10 -16 6 -3 7 1 4 9 -7 18 -14 21 -14 7z"/>
<path d="M2034 3782 c17 -18 34 -32 38 -32 15 0 0 18 -35 41 l-32 22 29 -31z"/>
<path d="M2258 3595 c8 -25 20 -45 28 -45 7 0 17 -6 21 -12 5 -7 33 -35 63
-63 l54 -50 -50 55 c-27 30 -67 79 -88 108 -21 28 -39 52 -40 52 -2 0 3 -20
12 -45z"/>
<path d="M2440 3595 c0 -8 7 -15 16 -15 14 0 14 3 4 15 -7 8 -14 15 -16 15 -2
0 -4 -7 -4 -15z"/>
<path d="M2370 3568 c11 -20 28 -42 36 -48 7 -7 14 -18 14 -24 0 -20 104 -108
158 -133 58 -27 84 -25 32 2 -18 9 -82 65 -142 123 -60 59 -112 109 -115 112
-3 3 5 -12 17 -32z"/>
<path d="M3720 3505 c0 -15 18 -40 24 -34 3 3 -1 14 -9 25 -8 10 -14 15 -15 9z"/>
<path d="M3866 3351 c-3 -5 1 -14 9 -21 12 -10 15 -10 15 3 0 19 -16 31 -24
18z"/>
<path d="M3405 2380 c10 -11 20 -20 22 -20 2 0 -2 9 -9 20 -7 11 -17 20 -22
20 -5 0 -1 -9 9 -20z"/>
<path d="M3430 2331 c0 -5 5 -13 10 -16 6 -3 10 -2 10 4 0 5 -4 13 -10 16 -5
3 -10 2 -10 -4z"/>
<path d="M3850 2340 c0 -5 5 -10 11 -10 5 0 7 5 4 10 -3 6 -8 10 -11 10 -2 0
-4 -4 -4 -10z"/>
<path d="M1234 5083 c-28 -39 -59 -109 -79 -177 -25 -87 -7 -278 39 -421 13
-38 29 -94 37 -122 7 -29 16 -53 21 -53 4 0 8 -9 8 -20 0 -11 9 -25 20 -32 11
-7 20 -23 20 -36 0 -12 8 -39 19 -60 10 -20 31 -75 45 -120 31 -99 43 -123 58
-119 7 1 13 -16 16 -41 2 -23 10 -54 17 -68 11 -23 14 -24 17 -7 2 10 -2 35
-9 57 -7 21 -13 47 -13 57 0 11 -4 19 -8 19 -5 0 -9 6 -9 13 0 6 -4 21 -9 31
-5 14 -4 17 5 11 10 -6 10 -2 -1 15 -7 12 -19 32 -25 44 -7 11 -13 17 -13 11
-1 -18 -29 40 -30 60 0 11 -7 31 -16 43 -9 13 -14 26 -11 29 3 3 -5 29 -18 59
-16 36 -20 54 -12 57 7 2 0 14 -16 29 -23 21 -27 32 -23 62 3 27 1 36 -10 36
-9 0 -14 11 -15 33 0 17 -2 42 -3 54 -2 18 0 20 11 11 11 -8 12 -7 7 6 -3 9
-10 16 -15 16 -5 0 -9 19 -8 43 1 35 2 38 9 17 4 -14 5 14 2 63 -3 62 -2 87 7
87 6 0 11 7 11 16 0 8 -4 12 -10 9 -5 -3 -10 -2 -10 4 0 5 5 13 10 16 8 5 8
11 1 19 -7 9 -7 16 2 25 9 10 9 15 0 18 -7 2 -9 11 -6 19 5 13 7 13 14 2 6 -8
9 1 9 27 0 30 -3 36 -12 27 -20 -20 -30 -13 -14 10 19 27 21 42 4 32 -8 -5 -9
-2 -3 12 4 10 8 27 9 36 0 9 4 15 7 12 4 -2 11 1 15 7 4 8 3 9 -4 5 -16 -10
-15 6 1 24 9 11 8 11 -7 0 -18 -14 -19 -13 -13 3 9 24 4 21 -19 -10z"/>
<path d="M1985 5020 c3 -5 11 -10 16 -10 6 0 7 5 4 10 -3 6 -11 10 -16 10 -6
0 -7 -4 -4 -10z"/>
<path d="M1800 4916 c0 -2 8 -10 18 -17 15 -13 16 -12 3 4 -13 16 -21 21 -21
13z"/>
<path d="M1442 4630 c0 -14 2 -19 5 -12 2 6 2 18 0 25 -3 6 -5 1 -5 -13z"/>
<path d="M3720 4196 c0 -8 4 -17 9 -20 5 -4 7 3 4 14 -6 23 -13 26 -13 6z"/>
<path d="M4361 4140 c-14 -3 -26 -10 -28 -17 -7 -19 27 -23 88 -8 62 14 83 24
58 27 -39 4 -97 3 -118 -2z"/>
<path d="M3760 4125 c0 -9 29 -56 34 -56 20 2 27 0 21 -8 -3 -5 2 -17 12 -26
13 -13 14 -18 3 -25 -8 -5 -10 -15 -6 -26 5 -13 9 -15 18 -6 16 16 28 15 28
-3 0 -12 4 -13 25 -3 24 11 25 30 2 27 -18 -3 -47 12 -47 24 0 5 -11 24 -23
41 -13 17 -26 37 -28 45 -4 12 -39 26 -39 16z"/>
<path d="M3877 4093 c-10 -9 5 -33 19 -33 8 0 14 -4 14 -10 0 -5 -4 -10 -10
-10 -5 0 -10 -5 -10 -10 0 -7 6 -7 19 -1 13 7 24 6 37 -3 13 -10 23 -11 35 -3
9 5 25 7 35 3 17 -7 15 -10 -13 -24 -18 -9 -33 -20 -33 -25 0 -5 -8 -16 -17
-23 -14 -9 -15 -16 -7 -24 9 -9 23 -8 58 4 26 9 54 16 62 16 8 0 25 5 37 12
12 7 31 13 42 15 11 2 23 10 27 18 10 17 60 29 110 26 40 -2 55 10 34 28 -16
13 -153 10 -176 -4 -20 -13 -99 -7 -123 10 -14 10 -25 11 -39 4 -14 -7 -20 -6
-24 6 -4 10 -13 13 -25 10 -11 -4 -19 -2 -19 3 0 11 -26 23 -33 15z"/>
<path d="M1510 3754 c0 -10 5 -26 10 -34 8 -11 9 -7 4 15 -8 37 -14 45 -14 19z"/>
<path d="M925 3343 c-9 -25 -6 -33 14 -33 11 0 22 -6 24 -12 3 -7 6 -4 6 7 1
18 2 18 17 -3 30 -44 44 -15 16 35 -14 25 -67 29 -77 6z"/>
<path d="M1027 3280 c-8 -11 -17 -17 -21 -12 -8 7 14 -48 23 -60 3 -4 19 -9
35 -11 31 -4 39 -18 73 -132 28 -97 32 -119 22 -126 -6 -3 -4 -11 6 -19 10 -8
15 -9 15 -1 0 6 7 11 15 11 17 0 20 16 5 25 -6 4 -8 10 -6 14 3 4 1 24 -4 44
-9 42 -4 48 11 15 9 -21 9 -21 6 5 -3 15 0 30 4 33 17 10 9 41 -23 82 -24 31
-37 40 -51 36 -16 -5 -18 -2 -12 18 12 38 11 42 -13 46 -12 2 -20 8 -17 13 8
12 -19 39 -39 39 -8 0 -21 -9 -29 -20z m31 -35 c-3 -3 -9 2 -12 12 -6 14 -5
15 5 6 7 -7 10 -15 7 -18z"/>
<path d="M1097 3093 c-8 -13 2 -43 14 -43 10 0 10 8 0 34 -5 12 -10 16 -14 9z"/>
<path d="M787 3083 c-3 -3 -1 -11 6 -17 15 -15 47 -28 47 -18 -1 11 -47 42
-53 35z"/>
<path d="M1384 3066 c-3 -8 3 -26 13 -40 19 -27 91 -71 100 -63 8 8 -80 116
-95 116 -7 1 -15 -6 -18 -13z"/>
<path d="M808 3015 c6 -11 10 -23 11 -27 1 -5 4 -8 7 -7 4 0 10 -4 13 -9 4 -6
11 -4 19 4 8 8 9 14 2 15 -5 1 -14 2 -20 3 -5 0 -16 10 -25 21 l-16 20 9 -20z"/>
<path d="M910 2987 c0 -9 -8 -17 -17 -17 -13 0 -14 -3 -6 -11 9 -9 16 -7 29 5
12 13 14 20 5 29 -8 8 -11 7 -11 -6z"/>
<path d="M860 2950 c0 -5 5 -10 11 -10 5 0 7 5 4 10 -3 6 -8 10 -11 10 -2 0
-4 -4 -4 -10z"/>
<path d="M940 2932 c0 -11 49 -31 54 -23 3 4 -8 12 -25 18 -16 6 -29 8 -29 5z"/>
<path d="M844 2914 c6 -6 13 -8 14 -3 7 17 24 9 20 -9 -4 -15 1 -18 28 -18 39
0 42 6 16 29 -22 20 -97 21 -78 1z"/>
<path d="M1270 2914 c0 -8 11 -46 24 -84 14 -39 28 -90 32 -115 4 -28 11 -45
20 -45 8 0 14 4 14 9 0 23 -32 160 -46 198 -15 41 -44 66 -44 37z"/>
<path d="M970 2832 c0 -9 13 -23 30 -30 44 -20 61 -8 23 14 -18 11 -33 22 -33
27 0 4 -4 7 -10 7 -5 0 -10 -8 -10 -18z"/>
<path d="M2141 2781 c-32 -28 -62 -36 -72 -20 -6 10 -9 8 -9 -8 0 -12 8 -26
17 -32 14 -8 15 -12 4 -25 -17 -20 -35 -21 -27 -1 12 31 -11 13 -38 -30 -16
-25 -32 -45 -35 -45 -3 0 -12 -9 -19 -21 -12 -18 -11 -19 7 -10 11 6 22 11 24
11 10 0 -6 -46 -23 -65 -9 -11 -24 -33 -34 -48 -44 -71 28 -68 114 5 8 7 17
12 20 10 10 -6 17 43 9 65 -7 17 -4 25 12 33 10 6 23 9 28 6 5 -3 11 3 14 14
3 11 21 27 40 36 38 18 67 60 67 97 0 29 -3 32 -46 41 -22 5 -36 2 -53 -13z
m-106 -161 c-3 -5 -12 -10 -18 -10 -7 0 -6 4 3 10 19 12 23 12 15 0z"/>
<path d="M1056 2746 c7 -17 68 -59 118 -80 38 -16 57 -6 36 19 -7 9 -8 15 -2
15 5 0 15 -7 22 -15 7 -9 15 -13 18 -10 12 11 -53 57 -87 61 -20 2 -45 7 -56
10 -11 3 -28 8 -37 10 -13 4 -16 1 -12 -10z"/>
<path d="M1853 2435 c-3 -9 -3 -18 0 -21 9 -9 27 6 27 22 0 19 -19 18 -27 -1z"/>
<path d="M1078 2398 c9 -9 15 -9 24 0 9 9 7 12 -12 12 -19 0 -21 -3 -12 -12z"/>
<path d="M2140 2375 c0 -9 5 -15 11 -13 6 2 11 8 11 13 0 5 -5 11 -11 13 -6 2
-11 -4 -11 -13z"/>
<path d="M610 2283 c-41 -20 -69 -38 -62 -41 7 -2 20 2 29 10 10 7 14 8 10 1
-10 -16 24 -26 59 -17 18 5 25 3 20 -4 -10 -17 10 -23 37 -11 16 7 23 17 20
26 -6 16 15 63 29 63 4 0 8 -7 8 -15 0 -8 -6 -15 -13 -15 -8 0 -14 -7 -14 -17
0 -12 6 -9 24 11 33 39 29 46 -24 46 -35 0 -69 -10 -123 -37z"/>
<path d="M688 2188 c-8 -7 -23 -18 -33 -24 -11 -6 -22 -22 -23 -35 -2 -13 -8
-28 -12 -33 -5 -5 -6 -22 -3 -38 4 -19 0 -35 -11 -47 -18 -20 -9 -35 12 -22
15 9 62 72 62 83 0 4 -7 8 -15 8 -22 0 -18 26 5 43 11 8 25 28 30 46 10 34 8
37 -12 19z"/>
<path d="M1480 2156 c0 -20 19 -31 32 -18 7 7 3 14 -11 21 -17 10 -21 9 -21
-3z"/>
<path d="M1280 2102 c0 -4 16 -16 35 -26 19 -11 35 -22 35 -26 0 -3 18 -6 40
-6 22 0 40 3 40 7 0 11 -61 40 -70 34 -4 -3 -13 2 -20 10 -13 15 -60 21 -60 7z"/>
<path d="M1432 2099 c2 -7 10 -15 17 -17 8 -3 12 1 9 9 -2 7 -10 15 -17 17 -8
3 -12 -1 -9 -9z"/>
<path d="M1300 2050 c0 -6 7 -10 15 -10 8 0 15 2 15 4 0 2 -7 6 -15 10 -8 3
-15 1 -15 -4z"/>
<path d="M1465 2020 c-3 -5 1 -10 10 -10 9 0 13 5 10 10 -3 6 -8 10 -10 10 -2
0 -7 -4 -10 -10z"/>
<path d="M1710 1935 c-7 -8 -19 -15 -26 -15 -8 0 -14 -4 -14 -9 0 -5 -12 -12
-26 -15 -29 -8 -191 -169 -205 -204 -5 -13 -9 -36 -9 -51 0 -17 -11 -38 -30
-56 -16 -16 -30 -35 -30 -44 0 -10 8 -7 28 12 16 15 32 24 36 20 4 -4 4 0 0
10 -5 13 -1 17 16 17 19 0 20 2 10 15 -9 10 -9 15 -1 16 32 4 36 6 34 17 -2 7
1 12 7 12 5 0 30 30 54 68 62 92 68 98 96 107 13 4 38 22 53 39 16 17 38 31
49 31 12 0 24 10 29 23 8 20 5 22 -25 22 -18 0 -39 -7 -46 -15z"/>
<path d="M1926 1654 c-9 -24 -2 -26 12 -4 7 11 8 20 3 20 -5 0 -12 -7 -15 -16z"/>
<path d="M1779 1414 c-5 -15 -12 -31 -15 -35 -3 -5 1 -9 9 -9 7 0 18 16 24 35
13 41 -2 48 -18 9z"/>
<path d="M1745 1198 c-4 -13 -7 -26 -7 -29 1 -3 -10 -12 -23 -19 -14 -7 -25
-21 -25 -31 0 -10 -6 -22 -13 -26 -6 -4 -18 -20 -26 -36 -8 -15 -17 -23 -21
-18 -3 6 -11 6 -19 2 -10 -6 -9 -10 4 -15 12 -4 14 -10 8 -19 -6 -7 -7 -34 -4
-62 l7 -50 50 53 c28 30 63 79 79 109 24 48 26 58 15 78 -11 20 -10 28 4 50
10 15 15 29 12 33 -3 3 -6 0 -6 -8 0 -9 -3 -10 -14 -1 -11 9 -15 7 -21 -11z"/>
<path d="M3138 1185 c-12 -12 5 -44 31 -62 63 -42 141 -73 141 -56 0 10 -72
72 -91 78 -9 3 -19 15 -22 27 -5 17 -9 19 -20 10 -9 -8 -17 -8 -23 -2 -6 6
-13 8 -16 5z"/>
</g>
</svg>
